<svg id="katman_1" data-name="katman 1" xmlns="http://www.w3.org/2000/svg" viewBox="0 0 128 70.15"><path d="M127.36,12.86c.31.11.5.42.83.51a.8.8,0,0,1-.28.57A44.51,44.51,0,0,1,124,17a105.35,105.35,0,0,0-8.56,6.31c-1.18,1.07-2.54,1.93-3.75,3a15.16,15.16,0,0,0-3,3,1.88,1.88,0,0,1-.44.45c-.69.53-1.36,1.08-2,1.63a5.41,5.41,0,0,0-1,1.19.37.37,0,0,0-.1.35,5.3,5.3,0,0,0,.82,1.81A9.3,9.3,0,0,1,108,39.21a6.47,6.47,0,0,0,1.73,3.7.1.1,0,0,1,0,.05,4.71,4.71,0,0,1,1,3c0,.36,0,.72,0,1.08a2.06,2.06,0,0,0,.34,1c.3.46.59.93.92,1.37a10.88,10.88,0,0,1,1.7,3.59,8.4,8.4,0,0,0,.9,2.12,16.93,16.93,0,0,1,1.19,2.06c0,.1.17.24.07.31s-.33.37-.65.27a15.81,15.81,0,0,1-2.33-.85c-.92-.46-1.94-.67-2.89-1.05a20.61,20.61,0,0,0-3.66-1.12,11.3,11.3,0,0,0-3.11-.4,12.43,12.43,0,0,1-4.41-.61,17.22,17.22,0,0,0-4.51-.68,14.07,14.07,0,0,1-3-.35A17.31,17.31,0,0,0,88,52.13c-1.57,0-3.12-.28-4.68-.36-1.4-.08-2.78-.34-4.18-.35A18.47,18.47,0,0,1,75.56,51a27.29,27.29,0,0,0-5.83-.67A17.25,17.25,0,0,1,67,50.25c-.79-.1-1.58-.16-2.37-.25a6.16,6.16,0,0,0-2.45.21,7.93,7.93,0,0,1-3.49.22,5.8,5.8,0,0,0-1.86,0l-1.2.17c-.73.07-1.48.11-2.21.2-1.11.15-2.22.34-3.33.49-.24,0-.32.08-.26.35a13.81,13.81,0,0,0,1.67,3.79c.52.92,1,1.86,1.53,2.78a26,26,0,0,1,1.27,3,47.8,47.8,0,0,0,2.75,5.26,7.19,7.19,0,0,1,.73,1.47,2.54,2.54,0,0,0,.56.89,2.21,2.21,0,0,1,.45.75.46.46,0,0,1-.1.5.45.45,0,0,1-.51,0,29.56,29.56,0,0,1-4.09-1.87c-.64-.37-1.31-.68-2-1A12.06,12.06,0,0,1,50,65.36a7.42,7.42,0,0,0-1.83-1.3c-1-.46-1.94-.9-2.87-1.43s-1.53-1-2.33-1.41a16.76,16.76,0,0,1-4.5-3.48,11.5,11.5,0,0,0-1.38-1.32,9.45,9.45,0,0,0-2.49-1.37,9.29,9.29,0,0,1-3.78-2.65,3,3,0,0,0-1.17-.8,21.93,21.93,0,0,1-3-1.27,32.28,32.28,0,0,0-5-2.56,21.55,21.55,0,0,1-4.5-2.26,17.41,17.41,0,0,0-3.7-1.88,18.21,18.21,0,0,1-2.41-1.13,26.78,26.78,0,0,0-4.88-2.36C4.71,39.68,3.33,39,1.85,38.58c-.44-.13-.56-.36-.47-.82,0,0,0-.1,0-.15-.18-.24-.18-.58-.35-.8a6.48,6.48,0,0,1-.78-2,.6.6,0,0,1,.23-.76c.74-.47,1.42-1,2.12-1.55C4.12,31.39,5.64,30.22,7.08,29c.9-.8,1.86-1.53,2.81-2.27,1.81-1.42,3.65-2.8,5.44-4.23,1.29-1,2.66-2,4-2.95a.42.42,0,0,1,.7.1.51.51,0,0,0,.23.16,6.58,6.58,0,0,1,1.34.57c.07,0,.15.12.23.07s.05-.18,0-.27a7.72,7.72,0,0,0-.48-1.89.52.52,0,0,1,.13-.71,8.24,8.24,0,0,1,1.29-1.07,20.24,20.24,0,0,0,3.4-2.5,1.92,1.92,0,0,1,.82-.47,5.12,5.12,0,0,0,2.3-1.21c.68-.64,1.38-1.27,2.09-1.9a3.8,3.8,0,0,1,1.67-.88,5.56,5.56,0,0,0,1.88-.95c.8-.57,1.45-1.31,2.21-1.91a4,4,0,0,1,1.6-.94,4,4,0,0,0,1.16-.48c.62-.36,1.18-.79,1.78-1.16a25,25,0,0,1,4.66-2.85,8.08,8.08,0,0,0,1.72-1,.9.9,0,0,1,1.09,0,4.27,4.27,0,0,1,1.77,2.59,1.39,1.39,0,0,0,.48.92.23.23,0,0,1,.05.31c-.27.48-.4,1-.64,1.52a19.26,19.26,0,0,0-1.55,3.36,1,1,0,0,1-.1.24c-.58,1.11-1.16,2.23-1.7,3.37-.33.69-.69,1.35-1,2.13.68-.17,1.29-.3,1.9-.47a46.28,46.28,0,0,1,5.92-1.4,7.17,7.17,0,0,1,2.65-.08,1.85,1.85,0,0,0,1.14-.11c.52-.21,1-.41,1.58-.58a4.22,4.22,0,0,1,2.24-.29,4.6,4.6,0,0,0,1.92,0,34.57,34.57,0,0,1,3.48-.7,4.83,4.83,0,0,1,1.42,0,9.88,9.88,0,0,0,2.66.06,5.36,5.36,0,0,0,1.77-.35A14.25,14.25,0,0,1,79,9.8a7.28,7.28,0,0,0,1.14.08c1.11-.17,2.24-.19,3.33-.46a15.66,15.66,0,0,1,4.3-.5,26.77,26.77,0,0,0,3.11-.19,24.9,24.9,0,0,1,3.35-.2,11.9,11.9,0,0,0,4-.35,2.31,2.31,0,0,1,1,0,17.87,17.87,0,0,0,5.56,0,11.89,11.89,0,0,1,4.45,0,3,3,0,0,0,.79.07,26.48,26.48,0,0,1,2.67.1c.79,0,1.58,0,2.38,0a16.65,16.65,0,0,1,1.73,0c1.15.17,2.3.21,3.45.27a7.77,7.77,0,0,1,2.82.63.36.36,0,0,1,.27.41c0,.17.08.23.2.21.6-.06,1,.34,1.4.64a3.17,3.17,0,0,1,.71.84A5.86,5.86,0,0,0,127,12.54.54.54,0,0,0,127.36,12.86ZM101.64,53.51a13.07,13.07,0,0,0,1.77,0,8.78,8.78,0,0,1,1.45.12,23.63,23.63,0,0,1,4.75,1.2c1.6.6,3.23,1.13,4.79,1.82a.58.58,0,0,0,.33.07c-.37-.8-.93-1.47-1.29-2.26s-.57-1.89-1-2.8a9.89,9.89,0,0,0-1-1.74c-.28-.41-.54-.83-.84-1.23a3.59,3.59,0,0,1-.67-2.24c0-.13,0-.27,0-.41a4,4,0,0,0-1.2-3.2,5.44,5.44,0,0,1-1.28-2.61c-.18-.72-.34-1.44-.55-2.15a7.46,7.46,0,0,0-1.46-2.55,6.42,6.42,0,0,1-1.11-2,1.54,1.54,0,0,1,.29-1.5l.11-.19a14.71,14.71,0,0,1,2.65-2.52.86.86,0,0,0,.13-.14c.4-.24.54-.67.78-1A33.42,33.42,0,0,1,114,23.29c.83-.61,1.58-1.33,2.39-2,1.45-1.17,3-2.2,4.53-3.26s3.37-2.33,5-3.62c.18-.15.4-.27.59-.41s.17-.21,0-.33c-.36-.3-.77-.52-1.15-.78a1.54,1.54,0,0,0-.77-.23,1,1,0,0,1-.64-.31,3.9,3.9,0,0,0-.74-.54,1,1,0,0,1-.47-.65c-.06-.19-.13-.35-.38-.16-1.43,1.09-2.84,2.23-4.31,3.29s-2.83,1.92-4.19,3c-1.06.82-2.08,1.7-3.11,2.55-.86.71-1.78,1.33-2.63,2.05-1,.88-2.15,1.71-3.11,2.69-.43.44-.74,1-1.15,1.43l-.07.06a7.12,7.12,0,0,0-1.14.84,10.32,10.32,0,0,0-1.85,1.71.79.79,0,0,0-.11.95,3.14,3.14,0,0,0,.7,1.51,9.43,9.43,0,0,1,2,4.68c.07.42.18.85.28,1.27a2.42,2.42,0,0,0,.51,1c.28.34.54.7.79,1.06a4.56,4.56,0,0,1,.68,3.25,2.46,2.46,0,0,0,.41,1.75c.33.48.61,1,.94,1.47A7.38,7.38,0,0,1,108,48.3a12.06,12.06,0,0,0,1.76,3.94c.16.43.32.86.49,1.29,0,.07.08.14,0,.19s-.11,0-.16-.06a2,2,0,0,0-.8-.43,25.53,25.53,0,0,1-3.16-1.29,6.65,6.65,0,0,0-1.13-.41c-.66-.16-1.25-.52-1.88-.74a27.58,27.58,0,0,0-3.07-.89c-.11,0-.21,0-.32,0a9.4,9.4,0,0,0-1.4-.29c-.34,0-.68,0-1,0a10.27,10.27,0,0,1-3.44-.49,23.46,23.46,0,0,0-4.3-.89c-.56,0-1.12,0-1.68-.06a22.58,22.58,0,0,1-2.71-.47,17.06,17.06,0,0,0-3.42-.46c-.91,0-1.82-.16-2.74-.25s-1.75-.13-2.61-.25c-1.34-.18-2.69-.11-4-.26-.89-.1-1.76-.31-2.65-.45a23.79,23.79,0,0,0-4.69-.42,22.91,22.91,0,0,1-3.51-.23,9.29,9.29,0,0,0-3.71.18,7.73,7.73,0,0,1-3.45.14,4.27,4.27,0,0,0-1.51.1c-.91.15-1.83.2-2.74.32-1.23.15-2.47.33-3.69.56-.16,0-.13.1-.12.21A6.9,6.9,0,0,0,47,48.93l.44,1s0,.07.07.07h0a1.57,1.57,0,0,0,.14.38,28.06,28.06,0,0,1,1.47,3A20.22,20.22,0,0,1,50,55.94c.49,1.44,1.23,2.76,1.85,4.13a5.82,5.82,0,0,1,.65,1.74c0,.12.12.17.18.25a2,2,0,0,1,.52.86.44.44,0,0,1-.13.46.42.42,0,0,1-.48,0c-.59-.26-1.21-.43-1.82-.64-.86-.44-1.72-.92-2.6-1.32a7.52,7.52,0,0,1-2.4-1.73A7.16,7.16,0,0,0,43.2,58a24.43,24.43,0,0,1-3.57-1.9c-.77-.47-1.59-.86-2.31-1.4a13.66,13.66,0,0,1-2.15-2,7.85,7.85,0,0,0-3.28-2.26,8.46,8.46,0,0,1-3.15-2,5.2,5.2,0,0,1-.37-.43,3.13,3.13,0,0,0-1.59-.94,18,18,0,0,1-3.93-1.9,17.28,17.28,0,0,0-2.75-1.3,24.42,24.42,0,0,1-5.22-2.65,11,11,0,0,0-2.51-1.21,24,24,0,0,1-4-2A17.43,17.43,0,0,0,5,36.55c-.94-.34-1.88-.71-2.82-1.06-.36-.14-.4-.12-.35.28a11,11,0,0,0,.4,1.79.59.59,0,0,0,.37.43c1.55.51,3,1.21,4.56,1.74a21.17,21.17,0,0,1,3.7,1.82,27.68,27.68,0,0,0,3.7,1.73A17.77,17.77,0,0,1,18,45.09a20.43,20.43,0,0,0,3.59,1.8A33,33,0,0,1,27,49.61a14,14,0,0,0,2.67,1.15,5.06,5.06,0,0,1,2,1.42A7.61,7.61,0,0,0,35,54.33a10.8,10.8,0,0,1,4.26,3,13,13,0,0,0,3,2.53c1.22.68,2.4,1.46,3.63,2.15a20.23,20.23,0,0,0,2,1,9.12,9.12,0,0,1,2.73,1.82,10.17,10.17,0,0,0,1.89,1.58c.56.32,1.15.59,1.72.89l1.88,1a3.39,3.39,0,0,0,.77.29c.19.12.25.1.26-.16a3.17,3.17,0,0,0-.58-1.61,34.82,34.82,0,0,1-3-5.91,24.91,24.91,0,0,0-2.14-4.48,28.78,28.78,0,0,1-1.92-3.85,5.72,5.72,0,0,1-.38-1.78c.18-.18.41,0,.6-.09a24.46,24.46,0,0,1,4.06-.7c1.31-.15,2.61-.37,3.92-.47a4.48,4.48,0,0,1,1,.11A7.52,7.52,0,0,0,62,49.43a8.77,8.77,0,0,1,3.27-.13,31,31,0,0,0,4.51.29,22.07,22.07,0,0,1,4.66.48,29.85,29.85,0,0,0,5.25.61c1,0,2,.19,3,.28.58.06,1.16.09,1.74.14a44.09,44.09,0,0,1,7.24.9,10.69,10.69,0,0,0,2.65.25A17.53,17.53,0,0,1,99,53a16.73,16.73,0,0,0,2,.45,1.07,1.07,0,0,0,.59.05h0S101.61,53.5,101.64,53.51Zm7.29-1.22s0,0,0-.07c-.35-.53-.56-1.14-.93-1.66a3.13,3.13,0,0,1-.47-1.3A11.46,11.46,0,0,0,105.69,45a4.33,4.33,0,0,1-.83-1.59,4.66,4.66,0,0,1,0-1.49,3.69,3.69,0,0,0-1-3,5.42,5.42,0,0,1-1.25-2.83c-.12-.63-.25-1.27-.41-1.89A7,7,0,0,0,101,31.81a6,6,0,0,1-1.11-2.15,1.32,1.32,0,0,1,.22-1.17,13.13,13.13,0,0,1,2.71-2.71,3.09,3.09,0,0,0,.81-.84,8.21,8.21,0,0,1,1.63-1.85c1.6-1.44,3.32-2.72,5-4.06,1-.76,1.89-1.57,2.85-2.33,1.18-.92,2.43-1.73,3.66-2.59,1.61-1.13,3.14-2.36,4.71-3.55.25-.18.45-.42.68-.62s.08-.18-.06-.21a5.91,5.91,0,0,0-1.24-.24c-1.27-.06-2.54-.16-3.8-.3-.32,0-.65,0-1,0-2-.08-4.1-.16-6.16-.19a3.38,3.38,0,0,1-.63-.07,11.08,11.08,0,0,0-4.1-.06,20.31,20.31,0,0,1-6,0,1.89,1.89,0,0,0-.82,0,13.69,13.69,0,0,1-3.88.33,21,21,0,0,0-3.07.13,32.14,32.14,0,0,1-4.28.25,16.07,16.07,0,0,0-3.83.48,30.44,30.44,0,0,1-3,.41,3.57,3.57,0,0,1-.73,0,15,15,0,0,0-5.16.41,12.54,12.54,0,0,1-2.24.67,11.19,11.19,0,0,1-3.32,0,6,6,0,0,0-2,.08c-1.17.17-2.3.54-3.48.71a2.64,2.64,0,0,1-1,0,4,4,0,0,0-2.43.18c-.66.22-1.31.47-2,.71a1,1,0,0,1-.65.07,6.37,6.37,0,0,0-2.68.06,48.29,48.29,0,0,0-6,1.42c-1.09.29-2.19.55-3.3.8a27.66,27.66,0,0,0-3.2.9,1.65,1.65,0,0,1-.5.1.28.28,0,0,1-.29-.14.26.26,0,0,1,.07-.32c.05,0,.17-.06.07-.15s-.11-.38,0-.59a13.94,13.94,0,0,1,1-2.4c.66-1.32,1.11-2.73,1.76-4s1.17-2.41,1.76-3.62a4.81,4.81,0,0,0,.41-1.23,2.55,2.55,0,0,1,.3-.7c.37-.63.65-1.31,1-2-.14,0-.23.06-.32.12a12.32,12.32,0,0,1-1.78.89,10.87,10.87,0,0,0-1.89,1.22c-1.19.8-2.35,1.66-3.6,2.37a2.3,2.3,0,0,1-.8.31,3.25,3.25,0,0,0-1.43.78c-.81.63-1.49,1.41-2.33,2a6,6,0,0,1-2.06,1A3.54,3.54,0,0,0,31.8,11c-.68.61-1.37,1.23-2,1.86a3.35,3.35,0,0,1-.93.66,7.81,7.81,0,0,1-1.67.68,1.14,1.14,0,0,0-.53.33,19.07,19.07,0,0,1-3.7,2.68,8.73,8.73,0,0,0-.7.54c-.15.1-.09.21,0,.33a6.77,6.77,0,0,1,.54,2.81.56.56,0,0,1-.25.54c-.22.12-.39,0-.56-.1-.55-.38-1.15-.66-1.73-1a.47.47,0,0,0-.59,0c-1.79,1.28-3.52,2.61-5.26,3.95C11.9,26.21,9.38,28,7,30c-1.8,1.44-3.62,2.85-5.48,4.23l-.17.14c1.59.61,3.15,1.23,4.73,1.8A14.22,14.22,0,0,1,8.48,37.3a28.53,28.53,0,0,0,4.61,2.26,17.37,17.37,0,0,1,3.27,1.74,12.63,12.63,0,0,0,2.45,1.26,38.7,38.7,0,0,1,6.24,3,15.27,15.27,0,0,0,2.45,1,3.3,3.3,0,0,1,1.39,1A7.05,7.05,0,0,0,32,49.71,9.36,9.36,0,0,1,36,52.43,11,11,0,0,0,39.08,55c.86.45,1.67,1,2.52,1.47a14.17,14.17,0,0,0,1.71.83,9,9,0,0,1,3.36,2.29,5.4,5.4,0,0,0,1.78,1.19c.8.36,1.57.78,2.35,1.17a2.93,2.93,0,0,0,.88.29,2.44,2.44,0,0,0-.38-1.75,27.73,27.73,0,0,1-2.11-4.92,24.84,24.84,0,0,0-2.07-4.9,11.82,11.82,0,0,1-1.44-4c-.06-.43,0-.52.43-.53a1.61,1.61,0,0,0,.37-.07,40.07,40.07,0,0,1,5.23-.82c.45,0,.9-.14,1.35-.21a5.26,5.26,0,0,1,1.77,0,7.8,7.8,0,0,0,3.36-.27,7.88,7.88,0,0,1,2.65-.14,38.08,38.08,0,0,0,4.65.3,28.37,28.37,0,0,1,6,.72,11.46,11.46,0,0,0,2.34.22c1.26,0,2.5.22,3.76.29,1.6.1,3.17.38,4.78.4a12.79,12.79,0,0,1,2.75.42,22.53,22.53,0,0,0,4.4.54,16.16,16.16,0,0,1,3.77.69,13.19,13.19,0,0,0,4.18.66,14.39,14.39,0,0,1,4.27.73,22.65,22.65,0,0,1,2.65,1c.91.38,1.87.62,2.76,1a9.13,9.13,0,0,0,1.72.7ZM44.82,15l.06,0c.61,0,.77-.43,1-.9.62-1.51,1.38-3,2.11-4.4a7.71,7.71,0,0,0,.81-2A1.85,1.85,0,0,1,49,7.08a11.94,11.94,0,0,0,.89-1.79,3.35,3.35,0,0,1,.68-1c.09-.11.17-.2-.06-.25s-.2-.15-.25-.31a2.44,2.44,0,0,0-.57-1.23,4.67,4.67,0,0,1-.61-.89,1.45,1.45,0,0,0-.19-.29c-.14-.15-.28-.19-.38.06A23.56,23.56,0,0,1,47.23,4a1.15,1.15,0,0,0-.14.32,16.13,16.13,0,0,1-1.41,3.18c-.86,1.79-1.68,3.6-2.5,5.42a26.69,26.69,0,0,0-1.28,3C42.88,15.48,43.87,15.29,44.82,15Z" transform="translate(-0.19)" style="fill:#070603"/><path d="M127,12.54a.54.54,0,0,0,.37.32c.31.11.5.42.83.51a.46.46,0,0,0-.42-.52C127.5,12.79,127.28,12.58,127,12.54Z" transform="translate(-0.19)" style="fill:#7b571e"/><path d="M108.88,52.25a9.13,9.13,0,0,1-1.72-.7c-.89-.43-1.85-.67-2.76-1a22.65,22.65,0,0,0-2.65-1,14.39,14.39,0,0,0-4.27-.73,13.19,13.19,0,0,1-4.18-.66,16.16,16.16,0,0,0-3.77-.69,22.53,22.53,0,0,1-4.4-.54,12.79,12.79,0,0,0-2.75-.42c-1.61,0-3.18-.3-4.78-.4-1.26-.07-2.5-.29-3.76-.29a11.46,11.46,0,0,1-2.34-.22,28.37,28.37,0,0,0-6-.72,38.08,38.08,0,0,1-4.65-.3,7.88,7.88,0,0,0-2.65.14,7.8,7.8,0,0,1-3.36.27,5.26,5.26,0,0,0-1.77,0c-.45.07-.9.16-1.35.21a40.07,40.07,0,0,0-5.23.82,1.61,1.61,0,0,1-.37.07c-.43,0-.49.1-.43.53a11.82,11.82,0,0,0,1.44,4,24.84,24.84,0,0,1,2.07,4.9,27.73,27.73,0,0,0,2.11,4.92,2.44,2.44,0,0,1,.38,1.75,2.93,2.93,0,0,1-.88-.29c-.78-.39-1.55-.81-2.35-1.17a5.4,5.4,0,0,1-1.78-1.19,9,9,0,0,0-3.36-2.29,14.17,14.17,0,0,1-1.71-.83c-.85-.47-1.66-1-2.52-1.47A11,11,0,0,1,36,52.43,9.36,9.36,0,0,0,32,49.71a7.05,7.05,0,0,1-3.15-2.18,3.3,3.3,0,0,0-1.39-1,15.27,15.27,0,0,1-2.45-1,38.7,38.7,0,0,0-6.24-3,12.63,12.63,0,0,1-2.45-1.26,17.37,17.37,0,0,0-3.27-1.74A28.53,28.53,0,0,1,8.48,37.3a14.22,14.22,0,0,0-2.43-1.15c-1.58-.57-3.14-1.19-4.73-1.8l.17-.14C3.35,32.83,5.17,31.42,7,30c2.41-1.94,4.93-3.77,7.38-5.66,1.74-1.34,3.47-2.67,5.26-3.95a.47.47,0,0,1,.59,0c.58.33,1.18.61,1.73,1,.17.11.34.22.56.1a.56.56,0,0,0,.25-.54,6.77,6.77,0,0,0-.54-2.81c-.05-.12-.11-.23,0-.33a8.73,8.73,0,0,1,.7-.54,19.07,19.07,0,0,0,3.7-2.68,1.14,1.14,0,0,1,.53-.33,7.81,7.81,0,0,0,1.67-.68,3.35,3.35,0,0,0,.93-.66c.66-.63,1.35-1.25,2-1.86a3.54,3.54,0,0,1,1.52-.83,6,6,0,0,0,2.06-1c.84-.6,1.52-1.38,2.33-2a3.25,3.25,0,0,1,1.43-.78,2.3,2.3,0,0,0,.8-.31c1.25-.71,2.41-1.57,3.6-2.37a10.87,10.87,0,0,1,1.89-1.22,12.32,12.32,0,0,0,1.78-.89c.09-.06.18-.15.32-.12-.33.67-.61,1.35-1,2a2.55,2.55,0,0,0-.3.7,4.81,4.81,0,0,1-.41,1.23C45.25,6.55,44.67,7.76,44.08,9s-1.1,2.73-1.76,4a13.94,13.94,0,0,0-1,2.4c-.07.21-.16.4,0,.59s0,.11-.07.15a.26.26,0,0,0-.07.32.28.28,0,0,0,.29.14,1.65,1.65,0,0,0,.5-.1,27.66,27.66,0,0,1,3.2-.9c1.11-.25,2.21-.51,3.3-.8a48.29,48.29,0,0,1,6-1.42,6.37,6.37,0,0,1,2.68-.06,1,1,0,0,0,.65-.07c.66-.24,1.31-.49,2-.71a4,4,0,0,1,2.43-.18,2.64,2.64,0,0,0,1,0c1.18-.17,2.31-.54,3.48-.71a6,6,0,0,1,2-.08,11.19,11.19,0,0,0,3.32,0,12.54,12.54,0,0,0,2.24-.67,15,15,0,0,1,5.16-.41,3.57,3.57,0,0,0,.73,0,30.44,30.44,0,0,0,3-.41,16.07,16.07,0,0,1,3.83-.48,32.14,32.14,0,0,0,4.28-.25,21,21,0,0,1,3.07-.13,13.69,13.69,0,0,0,3.88-.33,1.89,1.89,0,0,1,.82,0,20.31,20.31,0,0,0,6,0,11.08,11.08,0,0,1,4.1.06,3.38,3.38,0,0,0,.63.07c2.06,0,4.11.11,6.16.19.33,0,.66,0,1,0,1.26.14,2.53.24,3.8.3a5.91,5.91,0,0,1,1.24.24c.14,0,.18.09.06.21s-.43.44-.68.62c-1.57,1.19-3.1,2.42-4.71,3.55-1.23.86-2.48,1.67-3.66,2.59-1,.76-1.88,1.57-2.85,2.33-1.68,1.34-3.4,2.62-5,4.06a8.21,8.21,0,0,0-1.63,1.85,3.09,3.09,0,0,1-.81.84,13.13,13.13,0,0,0-2.71,2.71,1.32,1.32,0,0,0-.22,1.17A6,6,0,0,0,101,31.81a7,7,0,0,1,1.24,2.38c.16.62.29,1.26.41,1.89a5.42,5.42,0,0,0,1.25,2.83,3.69,3.69,0,0,1,1,3,4.66,4.66,0,0,0,0,1.49,4.33,4.33,0,0,0,.83,1.59,11.46,11.46,0,0,1,1.83,4.26,3.13,3.13,0,0,0,.47,1.3c.37.52.58,1.13.93,1.66ZM37.41,20.92a9.25,9.25,0,0,1,.6-2.31c.27-.68.54-1.36.79-2a2.14,2.14,0,0,0,.14-.71,5,5,0,0,1,.36-1.24c.21-.77.48-1.53.71-2.29a2.85,2.85,0,0,0,.27-.87,1,1,0,0,0-1.4-.91,3.58,3.58,0,0,0-1.56,1.13c-.21.24-.52.4-.74.64a14.32,14.32,0,0,1-2.06,1.59c-.65.48-1.36.86-2,1.4a4.77,4.77,0,0,1-.87.52,23.88,23.88,0,0,0-2.64,1.83,10,10,0,0,1-1.13.69,12.28,12.28,0,0,0-2,1.47,15.41,15.41,0,0,1-2,1.56,21.75,21.75,0,0,0-2.44,1.75c-.21.18-.47.31-.7.47a31.34,31.34,0,0,0-3.54,2.75,18.86,18.86,0,0,1-1.81,1.26c-.48.35-1,.7-1.46,1a17.37,17.37,0,0,0-2.23,1.65c-.63.53-1.32.95-1.95,1.46a1.89,1.89,0,0,0-.42.47,9,9,0,0,1-1,1.1.87.87,0,0,0-.18.94.74.74,0,0,0,.75.53,2,2,0,0,1,1.26.57,6.26,6.26,0,0,0,1.6,1,13.17,13.17,0,0,1,1.75,1c.7.43,1.43.81,2.17,1.18A14.89,14.89,0,0,1,17.77,40a27.5,27.5,0,0,0,2.43,1.6c1.14.71,2.26,1.45,3.44,2.09a16.54,16.54,0,0,0,2.73,1.18A20.49,20.49,0,0,1,30.91,47c1,.63,2,1.23,3,1.83a15.34,15.34,0,0,0,2.27,1.1,6.9,6.9,0,0,1,1.72,1c.64.5,1.39.84,2,1.4s1.55,1.26,2.33,1.9a11.14,11.14,0,0,0,1.15.72l1.34.83a.4.4,0,0,1,.13.13,1.24,1.24,0,0,0,1.06.54,1.5,1.5,0,0,1,1,.4.45.45,0,0,0,.59.12.48.48,0,0,0,.17-.62,1.23,1.23,0,0,1-.07-.68.89.89,0,0,0-.09-.68,6.69,6.69,0,0,0-.6-1c-.57-.81-1-1.71-1.45-2.56a10.85,10.85,0,0,0-.93-1.19A16.41,16.41,0,0,1,43.14,48c-.35-.66-.81-1.23-1.21-1.86-.22-.33-.42-.68-.64-1-.07-.1,0-.15.07-.16l1.13-.12a11.06,11.06,0,0,0,1.13-.3,21,21,0,0,1,3.54-.42c1.1-.06,2.2-.1,3.31-.21.93-.09,1.86-.18,2.79-.3a24.54,24.54,0,0,1,2.84-.13l1.66,0c1.24,0,2.48.06,3.72-.08.35,0,.71-.05,1.07-.07,1.14,0,2.28-.05,3.42-.14a19.58,19.58,0,0,1,3.75.12c.44.05.88,0,1.33.08.84.09,1.69.19,2.54.22.5,0,1,.06,1.5.1,1,.06,1.93.18,2.89.29.46.06.93,0,1.39.09.77.1,1.55.17,2.32.24.46,0,.93,0,1.39.07,1,.13,2,.17,3,.36s2.16.35,3.23.54c.47.08.93.2,1.39.29l2.14.41c.41.07.83.11,1.25.19,1,.21,2,.24,2.92.5a45.08,45.08,0,0,0,4.49.88c.52.08,1.06.1,1.58.13a1,1,0,0,0,1-1.29c-.29-1-.77-1.92-1.08-2.9-.45-1.41-.91-2.81-1.29-4.24a42.88,42.88,0,0,0-1.56-4.37c-.43-1.12-.75-2.28-1.09-3.43a9.43,9.43,0,0,0-1.3-2.69A5.25,5.25,0,0,1,97,27.52c0-.08-.06-.13,0-.19,1-.85,1.75-1.89,2.67-2.79.63-.61,1.3-1.18,1.92-1.8.94-1,1.86-1.93,2.83-2.86.79-.77,1.64-1.49,2.43-2.27.62-.62,1.29-1.17,1.9-1.81a11.54,11.54,0,0,1,2.29-1.68c.32-.2.59-.48.9-.7a.71.71,0,0,0,.34-.79,1,1,0,0,0-.78-.61,29,29,0,0,0-3,0,4.83,4.83,0,0,0-.84.11.88.88,0,0,1-.64-.06.61.61,0,0,0-.37-.06c-2.12,0-4.24,0-6.36,0-1.61,0-3.22.13-4.84.2a29.55,29.55,0,0,0-3.72.47,10.57,10.57,0,0,1-1.6.14c-1.45,0-2.89.12-4.32.25a47.37,47.37,0,0,1-5.71.41,12.59,12.59,0,0,0-3.28.4c-.94.22-1.9.34-2.86.47-.76.1-1.51.26-2.27.37-1,.14-2,.27-3.07.39a33,33,0,0,0-3.42.58,19.51,19.51,0,0,1-2.39.39c-.75.08-1.49.28-2.24.4-1,.15-2,.27-3,.41l-1.47.22c-1,.18-2.08.4-3.14.49-1.25.11-2.49.29-3.72.48-1,.16-2,.36-3.08.54-.78.14-1.56.34-2.33.53-1.26.31-2.52.6-3.77.94-.89.25-1.77.56-2.65.84l-.12,0Z" transform="translate(-0.19)" style="fill:#feda01"/><path d="M101.64,53.51a13.07,13.07,0,0,0,1.77,0,8.78,8.78,0,0,1,1.45.12,23.63,23.63,0,0,1,4.75,1.2c1.6.6,3.23,1.13,4.79,1.82a.58.58,0,0,0,.33.07c-.37-.8-.93-1.47-1.29-2.26a8.42,8.42,0,0,1-1.38-.68,6,6,0,0,1-1.68-1.16,1,1,0,0,0-.58-.39c.16.43.32.86.49,1.29,0,.07.08.14,0,.19s-.11,0-.16-.06a2,2,0,0,0-.8-.43,25.53,25.53,0,0,1-3.16-1.29,6.65,6.65,0,0,0-1.13-.41c-.66-.16-1.25-.52-1.88-.74a27.58,27.58,0,0,0-3.07-.89c-.11,0-.21,0-.32,0,0,.21-.2.15-.32.12a2.57,2.57,0,0,1-.54-.16c-.18-.07-.41-.06-.54-.25-.34,0-.68,0-1,0a10.27,10.27,0,0,1-3.44-.49,23.46,23.46,0,0,0-4.3-.89c-.56,0-1.12,0-1.68-.06a22.58,22.58,0,0,1-2.71-.47,17.06,17.06,0,0,0-3.42-.46c-.91,0-1.82-.16-2.74-.25s-1.75-.13-2.61-.25c-1.34-.18-2.69-.11-4-.26-.89-.1-1.76-.31-2.65-.45a23.79,23.79,0,0,0-4.69-.42,22.91,22.91,0,0,1-3.51-.23,9.29,9.29,0,0,0-3.71.18,7.73,7.73,0,0,1-3.45.14,4.27,4.27,0,0,0-1.51.1c-.91.15-1.83.2-2.74.32-1.23.15-2.47.33-3.69.56-.16,0-.13.1-.12.21A6.9,6.9,0,0,0,47,48.93l.44,1,.07.07h0a5.85,5.85,0,0,1,1.2.6.56.56,0,0,0,.4.17c.18-.18.41,0,.6-.09a24.46,24.46,0,0,1,4.06-.7c1.31-.15,2.61-.37,3.92-.47a4.48,4.48,0,0,1,1,.11A7.52,7.52,0,0,0,62,49.43a8.77,8.77,0,0,1,3.27-.13,31,31,0,0,0,4.51.29,22.07,22.07,0,0,1,4.66.48,29.85,29.85,0,0,0,5.25.61c1,0,2,.19,3,.28.58.06,1.16.09,1.74.14a44.09,44.09,0,0,1,7.24.9,10.69,10.69,0,0,0,2.65.25A17.53,17.53,0,0,1,99,53a16.73,16.73,0,0,0,2,.45c.08-.25.19-.35.41-.12,0,.06.15.08.18.17h0Z" transform="translate(-0.19)" style="fill:#7b571e"/><path d="M104.79,31.85a14.71,14.71,0,0,1,2.65-2.52.86.86,0,0,0,.13-.14l-.23-.09c-.32-.09-.18-.21,0-.33a2.37,2.37,0,0,1,.46-.32c.19-.09.32-.32.57-.29A33.42,33.42,0,0,1,114,23.29c.83-.61,1.58-1.33,2.39-2,1.45-1.17,3-2.2,4.53-3.26s3.37-2.33,5-3.62c.18-.15.4-.27.59-.41s.17-.21,0-.33c-.36-.3-.77-.52-1.15-.78a1.54,1.54,0,0,0-.77-.23,1,1,0,0,1-.64-.31,3.9,3.9,0,0,0-.74-.54,1,1,0,0,1-.47-.65c-.06-.19-.13-.35-.38-.16-1.43,1.09-2.84,2.23-4.31,3.29s-2.83,1.92-4.19,3c-1.06.82-2.08,1.7-3.11,2.55-.86.71-1.78,1.33-2.63,2.05-1,.88-2.15,1.71-3.11,2.69-.43.44-.74,1-1.15,1.43a3.07,3.07,0,0,1,.68-.06c.06,0,.13,0,.11.1s-.37.33-.62.35-.23-.18-.24-.33a7.12,7.12,0,0,0-1.14.84,10.32,10.32,0,0,0-1.85,1.71.79.79,0,0,0-.11.95,1.94,1.94,0,0,1,.66.2,5.71,5.71,0,0,1,1.9,1.09A4.37,4.37,0,0,0,104.79,31.85Z" transform="translate(-0.19)" style="fill:#7b571e"/><path d="M50.75,62.78c-.86-.44-1.72-.92-2.6-1.32a7.52,7.52,0,0,1-2.4-1.73A7.16,7.16,0,0,0,43.2,58a24.43,24.43,0,0,1-3.57-1.9c-.77-.47-1.59-.86-2.31-1.4a13.66,13.66,0,0,1-2.15-2,7.85,7.85,0,0,0-3.28-2.26,8.46,8.46,0,0,1-3.15-2,5.2,5.2,0,0,1-.37-.43,3.13,3.13,0,0,0-1.59-.94,18,18,0,0,1-3.93-1.9,17.28,17.28,0,0,0-2.75-1.3,24.42,24.42,0,0,1-5.22-2.65,11,11,0,0,0-2.51-1.21,24,24,0,0,1-4-2A17.43,17.43,0,0,0,5,36.55c-.94-.34-1.88-.71-2.82-1.06-.36-.14-.4-.12-.35.28a11,11,0,0,0,.4,1.79.59.59,0,0,0,.37.43c1.55.51,3,1.21,4.56,1.74a21.17,21.17,0,0,1,3.7,1.82,27.68,27.68,0,0,0,3.7,1.73A17.77,17.77,0,0,1,18,45.09a20.43,20.43,0,0,0,3.59,1.8A33,33,0,0,1,27,49.61a14,14,0,0,0,2.67,1.15,5.06,5.06,0,0,1,2,1.42A7.61,7.61,0,0,0,35,54.33a10.8,10.8,0,0,1,4.26,3,13,13,0,0,0,3,2.53c1.22.68,2.4,1.46,3.63,2.15a20.23,20.23,0,0,0,2,1,9.12,9.12,0,0,1,2.73,1.82,10.17,10.17,0,0,0,1.89,1.58c.56.32,1.15.59,1.72.89l1.88,1a3.39,3.39,0,0,0,.77.29,1.5,1.5,0,0,0-.27-1.11,11,11,0,0,0-1.73-1.75A11.91,11.91,0,0,1,53,64.05c-.36-.41-.77-.81-1.42-.59a.23.23,0,0,1-.18,0A5.23,5.23,0,0,1,50.75,62.78Z" transform="translate(-0.19)" style="fill:#7b571e"/><path d="M104.79,31.85a4.37,4.37,0,0,1-1.59-1,5.71,5.71,0,0,0-1.9-1.09,1.94,1.94,0,0,0-.66-.2,3.14,3.14,0,0,0,.7,1.51,9.43,9.43,0,0,1,2,4.68c.07.42.18.85.28,1.27a2.42,2.42,0,0,0,.51,1c.28.34.54.7.79,1.06a4.56,4.56,0,0,1,.68,3.25,2.46,2.46,0,0,0,.41,1.75c.33.48.61,1,.94,1.47A7.38,7.38,0,0,1,108,48.3a12.06,12.06,0,0,0,1.76,3.94,1,1,0,0,1,.58.39,6,6,0,0,0,1.68,1.16,8.42,8.42,0,0,0,1.38.68c-.35-.92-.57-1.89-1-2.8a9.89,9.89,0,0,0-1-1.74c-.28-.41-.54-.83-.84-1.23a3.59,3.59,0,0,1-.67-2.24c0-.13,0-.27,0-.41a4,4,0,0,0-1.2-3.2,5.44,5.44,0,0,1-1.28-2.61c-.18-.72-.34-1.44-.55-2.15a7.46,7.46,0,0,0-1.46-2.55,6.42,6.42,0,0,1-1.11-2,1.54,1.54,0,0,1,.29-1.5Z" transform="translate(-0.19)" style="fill:#b67207"/><path d="M41.9,15.89c1-.41,2-.6,2.92-.91l.06,0c.61,0,.77-.43,1-.9.62-1.51,1.38-3,2.11-4.4a7.71,7.71,0,0,0,.81-2A1.85,1.85,0,0,1,49,7.08a11.94,11.94,0,0,0,.89-1.79,3.35,3.35,0,0,1,.68-1c.09-.11.17-.2-.06-.25s-.2-.15-.25-.31a2.44,2.44,0,0,0-.57-1.23,4.67,4.67,0,0,1-.61-.89,1.45,1.45,0,0,0-.19-.29c-.14-.15-.28-.19-.38.06A23.56,23.56,0,0,1,47.23,4a1.15,1.15,0,0,0-.14.32,16.13,16.13,0,0,1-1.41,3.18c-.86,1.79-1.68,3.6-2.5,5.42A26.69,26.69,0,0,0,41.9,15.89Z" transform="translate(-0.19)" style="fill:#b67207"/><path d="M50.75,62.78a5.23,5.23,0,0,0,.69.64.23.23,0,0,0,.18,0c.65-.22,1.06.18,1.42.59a11.91,11.91,0,0,0,1.81,1.67,11,11,0,0,1,1.73,1.75,1.5,1.5,0,0,1,.27,1.11c.19.12.25.1.26-.16a3.17,3.17,0,0,0-.58-1.61,34.82,34.82,0,0,1-3-5.91,24.91,24.91,0,0,0-2.14-4.48,28.78,28.78,0,0,1-1.92-3.85,5.72,5.72,0,0,1-.38-1.78.56.56,0,0,1-.4-.17,5.85,5.85,0,0,0-1.2-.6,1.57,1.57,0,0,0,.14.38,28.06,28.06,0,0,1,1.47,3A20.22,20.22,0,0,1,50,55.94c.49,1.44,1.23,2.76,1.85,4.13a5.82,5.82,0,0,1,.65,1.74c0,.12.12.17.18.25a2,2,0,0,1,.52.86.44.44,0,0,1-.13.46.42.42,0,0,1-.48,0C52,63.16,51.36,63,50.75,62.78Z" transform="translate(-0.19)" style="fill:#b67207"/><path d="M108.35,28.16c-.25,0-.38.2-.57.29a2.37,2.37,0,0,0-.46.32c-.16.12-.3.24,0,.33l.23.09C108,29,108.11,28.52,108.35,28.16Z" transform="translate(-0.19)" style="fill:#b67207"/><path d="M103.74,26.06c0,.15,0,.34.24.33s.6-.19.62-.35,0-.09-.11-.1a3.07,3.07,0,0,0-.68.06Z" transform="translate(-0.19)" style="fill:#b67207"/><path d="M98.35,49.59c.13.19.36.18.54.25a2.57,2.57,0,0,0,.54.16c.12,0,.28.09.32-.12A9.4,9.4,0,0,0,98.35,49.59Z" transform="translate(-0.19)" style="fill:#b67207"/><path d="M101.59,53.46c0-.09-.13-.11-.18-.17-.22-.23-.33-.13-.41.12A1.07,1.07,0,0,0,101.59,53.46Z" transform="translate(-0.19)" style="fill:#b67207"/><path d="M47.51,50,47.44,50S47.46,50,47.51,50Z" transform="translate(-0.19)" style="fill:#b67207"/><path d="M108.88,52.25l.05,0s0,0,0-.07Z" transform="translate(-0.19)" style="fill:#feda01"/><path d="M101.64,53.51l-.06-.06S101.61,53.5,101.64,53.51Z" transform="translate(-0.19)" style="fill:#b67207"/><path d="M37.38,20.93h0l.12,0c.88-.28,1.76-.59,2.65-.84,1.25-.34,2.51-.63,3.77-.94.77-.19,1.55-.39,2.33-.53,1-.18,2-.38,3.08-.54,1.23-.19,2.47-.37,3.72-.48,1.06-.09,2.1-.31,3.14-.49l1.47-.22c1-.14,2-.26,3-.41.75-.12,1.49-.32,2.24-.4a19.51,19.51,0,0,0,2.39-.39,33,33,0,0,1,3.42-.58c1-.12,2-.25,3.07-.39.76-.11,1.51-.27,2.27-.37,1-.13,1.92-.25,2.86-.47a12.59,12.59,0,0,1,3.28-.4A47.37,47.37,0,0,0,85.89,13c1.43-.13,2.87-.23,4.32-.25a10.57,10.57,0,0,0,1.6-.14,29.55,29.55,0,0,1,3.72-.47c1.62-.07,3.23-.16,4.84-.2,2.12-.05,4.24,0,6.36,0a.61.61,0,0,1,.37.06.88.88,0,0,0,.64.06,4.83,4.83,0,0,1,.84-.11,29,29,0,0,1,3,0,1,1,0,0,1,.78.61.71.71,0,0,1-.34.79c-.31.22-.58.5-.9.7a11.54,11.54,0,0,0-2.29,1.68c-.61.64-1.28,1.19-1.9,1.81-.79.78-1.64,1.5-2.43,2.27-1,.93-1.89,1.9-2.83,2.86-.62.62-1.29,1.19-1.92,1.8-.92.9-1.7,1.94-2.67,2.79-.08.06,0,.11,0,.19a5.25,5.25,0,0,0,.68,1.28A9.43,9.43,0,0,1,99,31.49c.34,1.15.66,2.31,1.09,3.43a42.88,42.88,0,0,1,1.56,4.37c.38,1.43.84,2.83,1.29,4.24.31,1,.79,1.91,1.08,2.9a1,1,0,0,1-1,1.29c-.52,0-1.06,0-1.58-.13A45.08,45.08,0,0,1,97,46.71c-1-.26-2-.29-2.92-.5-.42-.08-.84-.12-1.25-.19l-2.14-.41c-.46-.09-.92-.21-1.39-.29-1.07-.19-2.16-.33-3.23-.54s-2-.23-3-.36c-.46-.06-.93,0-1.39-.07-.77-.07-1.55-.14-2.32-.24-.46-.07-.93,0-1.39-.09-1-.11-1.92-.23-2.89-.29-.5,0-1-.08-1.5-.1-.85,0-1.7-.13-2.54-.22-.45,0-.89,0-1.33-.08A19.58,19.58,0,0,0,66,43.21c-1.14.09-2.28.1-3.42.14-.36,0-.72,0-1.07.07-1.24.14-2.48.06-3.72.08l-1.66,0a24.54,24.54,0,0,0-2.84.13c-.93.12-1.86.21-2.79.3-1.11.11-2.21.15-3.31.21a21,21,0,0,0-3.54.42,11.06,11.06,0,0,1-1.13.3L41.36,45c-.12,0-.14.06-.07.16.22.34.42.69.64,1,.4.63.86,1.2,1.21,1.86a16.41,16.41,0,0,0,1.45,2.14,10.85,10.85,0,0,1,.93,1.19c.48.85.88,1.75,1.45,2.56a6.69,6.69,0,0,1,.6,1,.89.89,0,0,1,.09.68,1.23,1.23,0,0,0,.07.68.48.48,0,0,1-.17.62.45.45,0,0,1-.59-.12,1.5,1.5,0,0,0-1-.4,1.24,1.24,0,0,1-1.06-.54.4.4,0,0,0-.13-.13l-1.34-.83a11.14,11.14,0,0,1-1.15-.72c-.78-.64-1.59-1.22-2.33-1.9s-1.35-.9-2-1.4a6.9,6.9,0,0,0-1.72-1A15.34,15.34,0,0,1,34,48.81c-1-.6-2-1.2-3-1.83a20.49,20.49,0,0,0-4.54-2.14,16.54,16.54,0,0,1-2.73-1.18c-1.18-.64-2.3-1.38-3.44-2.09A27.5,27.5,0,0,1,17.77,40a14.89,14.89,0,0,0-2.14-1.45c-.74-.37-1.47-.75-2.17-1.18a13.17,13.17,0,0,0-1.75-1,6.26,6.26,0,0,1-1.6-1,2,2,0,0,0-1.26-.57.74.74,0,0,1-.75-.53.87.87,0,0,1,.18-.94,9,9,0,0,0,1-1.1,1.89,1.89,0,0,1,.42-.47c.63-.51,1.32-.93,1.95-1.46a17.37,17.37,0,0,1,2.23-1.65c.51-.3,1-.65,1.46-1a18.86,18.86,0,0,0,1.81-1.26,31.34,31.34,0,0,1,3.54-2.75c.23-.16.49-.29.7-.47a21.75,21.75,0,0,1,2.44-1.75,15.41,15.41,0,0,0,2-1.56,12.28,12.28,0,0,1,2-1.47,10,10,0,0,0,1.13-.69,23.88,23.88,0,0,1,2.64-1.83,4.77,4.77,0,0,0,.87-.52c.6-.54,1.31-.92,2-1.4a14.32,14.32,0,0,0,2.06-1.59c.22-.24.53-.4.74-.64a3.58,3.58,0,0,1,1.56-1.13,1,1,0,0,1,1.4.91,2.85,2.85,0,0,1-.27.87c-.23.76-.5,1.52-.71,2.29a5,5,0,0,0-.36,1.24,2.14,2.14,0,0,1-.14.71c-.25.68-.52,1.36-.79,2a9.25,9.25,0,0,0-.6,2.31Zm68.46-6.48c-.2,0-.4.05-.59.05-1.4,0-2.8,0-4.2,0s-2.56.16-3.85.24c-.53,0-1.07,0-1.6.07-.8.07-1.61.15-2.41.28a19.57,19.57,0,0,1-2.41.29c-1.33.06-2.67.1-4,.2-1,.08-2,.23-3.07.36a29.35,29.35,0,0,1-3.51.15,13.51,13.51,0,0,0-2.45.27,27.78,27.78,0,0,1-3,.5c-.69.05-1.37.22-2,.32l-2.56.36c-1.19.17-2.38.28-3.56.54a27.66,27.66,0,0,1-2.89.49c-.69.08-1.38.23-2.08.34l-3,.47c-.85.13-1.71.23-2.56.4a21.73,21.73,0,0,1-2.42.37c-1,.09-1.92.24-2.88.35s-2,.31-3,.49-1.81.35-2.71.6-1.7.47-2.57.66-1.52.41-2.3.53c-1.18.18-2.3.59-3.46.84a3.9,3.9,0,0,1-1.7,0c-.71-.15-.91-.51-.68-1.19.61-1.78,1.2-3.57,1.74-5.38.16-.56.4-1.1.59-1.68a11.77,11.77,0,0,1-1.29.83c-.87.52-1.6,1.22-2.51,1.7a6.73,6.73,0,0,0-2.08,1.51,15.74,15.74,0,0,1-2.35,1.8,10.17,10.17,0,0,0-.92.82,13.48,13.48,0,0,1-2.39,1.8,16.76,16.76,0,0,0-1.74,1.26,11.48,11.48,0,0,1-1.62,1.09A14,14,0,0,0,20,27.54c-.77.62-1.4,1.38-2.22,1.94s-1.83,1.38-2.8,2c-.32.2-.64.41-.95.63a6.5,6.5,0,0,1-1.18.59,6.89,6.89,0,0,0-1.61,1c-.11.08-.35.1-.31.29s.26.17.4.23c1.36.67,2.72,1.31,4.07,2a15.92,15.92,0,0,1,3.18,1.94,17.13,17.13,0,0,0,3,1.87c.81.44,1.56,1,2.35,1.44A16.75,16.75,0,0,0,27,42.78,23.6,23.6,0,0,1,30.12,44,27.47,27.47,0,0,1,33,45.77c.6.41,1.27.72,1.89,1.1.94.58,2,1,3,1.45a16.74,16.74,0,0,1,1.85,1.26c.6.41,1.2.83,1.76,1.29L42.81,52a2.33,2.33,0,0,0,.4.27,4.18,4.18,0,0,0-.59-1.48c-.68-1-1.26-2.11-1.84-3.21-.35-.67-.67-1.35-1-2a3.7,3.7,0,0,0-.46-.79.84.84,0,0,1,.41-1.37c1.08-.27,2.05-.83,3.1-1.16a10.55,10.55,0,0,1,2.61-.61c1.28-.07,2.56-.16,3.85-.21a19.68,19.68,0,0,0,2.29-.21A21.51,21.51,0,0,1,53.85,41c1.13-.06,2.28-.06,3.41-.15.65-.05,1.29-.05,1.93,0,1,0,2-.07,2.92-.07a8,8,0,0,0,1-.11,5.68,5.68,0,0,1,.72,0c1.31-.06,2.62-.15,3.93-.11.82,0,1.63.14,2.45.22l1.57.14,2.86.25,2.27.2c1,.1,1.94.21,2.91.3.54.06,1.07.1,1.61.14,1.09.08,2.19.13,3.27.25s2.25.36,3.37.55c.7.11,1.41.21,2.11.36s1.38.29,2.06.47a17.82,17.82,0,0,0,3.16.61,11.18,11.18,0,0,1,2,.41c1,.28,2.13.46,3.21.65.58.1.57.08.4-.46-.63-2-1.28-4-1.86-6a13.63,13.63,0,0,0-.68-1.74c-.33-.75-.62-1.53-.87-2.3s-.58-1.68-.85-2.52a13.29,13.29,0,0,0-1.5-3,4,4,0,0,1-.6-2.13.79.79,0,0,1,.47-.76.61.61,0,0,0,.4-.41.63.63,0,0,1,.17-.23c.66-.65,1.27-1.36,1.91-2,.87-.88,1.73-1.77,2.64-2.6s1.52-1.59,2.31-2.35c1.23-1.18,2.48-2.33,3.73-3.48a6.92,6.92,0,0,1,.78-.63A10,10,0,0,1,105.84,14.45Z" transform="translate(-0.19)" style="fill:#fe9c01"/><path d="M107.07,14.48a10,10,0,0,1-1.23,0c-.2,0-.4.05-.59.05-1.4,0-2.8,0-4.2,0s-2.56.16-3.85.24c-.53,0-1.07,0-1.6.07-.8.07-1.61.15-2.41.28a19.57,19.57,0,0,1-2.41.29c-1.33.06-2.67.1-4,.2-1,.08-2,.23-3.07.36a29.35,29.35,0,0,1-3.51.15,13.51,13.51,0,0,0-2.45.27,27.78,27.78,0,0,1-3,.5c-.69.05-1.37.22-2,.32l-2.56.36c-1.19.17-2.38.28-3.56.54a27.66,27.66,0,0,1-2.89.49c-.69.08-1.38.23-2.08.34l-3,.47c-.85.13-1.71.23-2.56.4a21.73,21.73,0,0,1-2.42.37c-1,.09-1.92.24-2.88.35s-2,.31-3,.49-1.81.35-2.71.6-1.7.47-2.57.66-1.52.41-2.3.53c-1.18.18-2.3.59-3.46.84a3.9,3.9,0,0,1-1.7,0c-.71-.15-.91-.51-.68-1.19.61-1.78,1.2-3.57,1.74-5.38.16-.56.4-1.1.59-1.68a11.77,11.77,0,0,1-1.29.83c-.87.52-1.6,1.22-2.51,1.7a6.73,6.73,0,0,0-2.08,1.51,15.74,15.74,0,0,1-2.35,1.8,10.17,10.17,0,0,0-.92.82,13.48,13.48,0,0,1-2.39,1.8,16.76,16.76,0,0,0-1.74,1.26,11.48,11.48,0,0,1-1.62,1.09A14,14,0,0,0,20,27.54c-.77.62-1.4,1.38-2.22,1.94s-1.83,1.38-2.8,2c-.32.2-.64.41-.95.63a6.5,6.5,0,0,1-1.18.59,6.89,6.89,0,0,0-1.61,1c-.11.08-.35.1-.31.29s.26.17.4.23c1.36.67,2.72,1.31,4.07,2a15.92,15.92,0,0,1,3.18,1.94,17.13,17.13,0,0,0,3,1.87c.81.44,1.56,1,2.35,1.44A16.75,16.75,0,0,0,27,42.78,23.6,23.6,0,0,1,30.12,44,27.47,27.47,0,0,1,33,45.77c.6.41,1.27.72,1.89,1.1.94.58,2,1,3,1.45a16.74,16.74,0,0,1,1.85,1.26c.6.41,1.2.83,1.76,1.29L42.81,52a2.33,2.33,0,0,0,.4.27,4.18,4.18,0,0,0-.59-1.48c-.68-1-1.26-2.11-1.84-3.21-.35-.67-.67-1.35-1-2a3.7,3.7,0,0,0-.46-.79.84.84,0,0,1,.41-1.37c1.08-.27,2.05-.83,3.1-1.16a10.55,10.55,0,0,1,2.61-.61c1.28-.07,2.56-.16,3.85-.21a19.68,19.68,0,0,0,2.29-.21A21.51,21.51,0,0,1,53.85,41c1.13-.06,2.28-.06,3.41-.15.65-.05,1.29-.05,1.93,0,1,0,2-.07,2.92-.07a8,8,0,0,0,1-.11,5.68,5.68,0,0,1,.72,0c1.31-.06,2.62-.15,3.93-.11.82,0,1.63.14,2.45.22l1.57.14,2.86.25,2.27.2c1,.1,1.94.21,2.91.3.54.06,1.07.1,1.61.14,1.09.08,2.19.13,3.27.25s2.25.36,3.37.55c.7.11,1.41.21,2.11.36s1.38.29,2.06.47a17.82,17.82,0,0,0,3.16.61,11.18,11.18,0,0,1,2,.41c1,.28,2.13.46,3.21.65.58.1.57.08.4-.46-.63-2-1.28-4-1.86-6a13.63,13.63,0,0,0-.68-1.74c-.33-.75-.62-1.53-.87-2.3s-.58-1.68-.85-2.52a13.29,13.29,0,0,0-1.5-3,4,4,0,0,1-.6-2.13.79.79,0,0,1,.47-.76.61.61,0,0,0,.4-.41.63.63,0,0,1,.17-.23c.66-.65,1.27-1.36,1.91-2,.87-.88,1.73-1.77,2.64-2.6s1.52-1.59,2.31-2.35c1.23-1.18,2.48-2.33,3.73-3.48A6.92,6.92,0,0,1,107.07,14.48Z" transform="translate(-0.19)" style="fill:#feda01"/><path d="M37.41,20.92h0Z" transform="translate(-0.19)" style="fill:#feda01"/></svg>