<svg id="katman_1" data-name="katman 1" xmlns="http://www.w3.org/2000/svg" viewBox="0 0 128 70.15"><path d="M1.2,12.54a5.86,5.86,0,0,0,1.33-1.15,3.17,3.17,0,0,1,.71-.84c.43-.3.81-.7,1.4-.64.12,0,.22,0,.2-.21a.37.37,0,0,1,.27-.41,7.77,7.77,0,0,1,2.82-.63c1.15-.06,2.31-.1,3.45-.27a16.79,16.79,0,0,1,1.74,0c.79,0,1.58,0,2.37,0a26.48,26.48,0,0,1,2.67-.1A3,3,0,0,0,19,8.14a11.89,11.89,0,0,1,4.45,0,17.87,17.87,0,0,0,5.56,0,2.31,2.31,0,0,1,1,0,11.9,11.9,0,0,0,4,.35,24.9,24.9,0,0,1,3.35.2,26.9,26.9,0,0,0,3.11.19,15.66,15.66,0,0,1,4.3.5c1.09.27,2.22.29,3.33.46A7.28,7.28,0,0,0,49.2,9.8a14.22,14.22,0,0,1,5.85.87,5.36,5.36,0,0,0,1.77.35A9.88,9.88,0,0,0,59.48,11a4.83,4.83,0,0,1,1.42,0,34,34,0,0,1,3.48.7,4.6,4.6,0,0,0,1.92,0,4.22,4.22,0,0,1,2.24.29c.53.17,1.06.37,1.58.58a1.85,1.85,0,0,0,1.14.11,7.16,7.16,0,0,1,2.65.08,46.28,46.28,0,0,1,5.92,1.4c.61.17,1.22.3,1.9.47-.32-.78-.68-1.44-1-2.13-.54-1.14-1.12-2.26-1.7-3.37a1,1,0,0,1-.1-.24,19.26,19.26,0,0,0-1.55-3.36c-.24-.5-.36-1-.64-1.52a.23.23,0,0,1,0-.31,1.39,1.39,0,0,0,.48-.92A4.27,4.27,0,0,1,79,.17a.9.9,0,0,1,1.09,0,8.33,8.33,0,0,0,1.72,1A25,25,0,0,1,86.5,4.06c.6.37,1.17.8,1.78,1.16a4.07,4.07,0,0,0,1.16.48,4,4,0,0,1,1.6.94c.77.6,1.41,1.34,2.21,1.91a5.52,5.52,0,0,0,1.89.95,3.82,3.82,0,0,1,1.66.88c.71.63,1.41,1.26,2.1,1.9a5,5,0,0,0,2.29,1.21A1.92,1.92,0,0,1,102,14a20.24,20.24,0,0,0,3.4,2.5,8.24,8.24,0,0,1,1.29,1.07.53.53,0,0,1,.14.71,7.31,7.31,0,0,0-.49,1.89c0,.09-.06.21,0,.27s.16,0,.23-.07a6.58,6.58,0,0,1,1.34-.57.46.46,0,0,0,.23-.16.42.42,0,0,1,.7-.1c1.32,1,2.69,1.92,4,2.95,1.8,1.43,3.63,2.81,5.44,4.23,1,.74,1.91,1.47,2.82,2.27,1.43,1.27,2.95,2.44,4.48,3.59.7.52,1.38,1.08,2.12,1.55a.6.6,0,0,1,.23.76,6.48,6.48,0,0,1-.78,2c-.17.22-.17.56-.35.8,0,0,0,.1,0,.15.09.46,0,.69-.47.82-1.48.42-2.86,1.1-4.32,1.56a26.78,26.78,0,0,0-4.88,2.36,17.63,17.63,0,0,1-2.41,1.13,17.89,17.89,0,0,0-3.7,1.88,21.55,21.55,0,0,1-4.5,2.26,32.28,32.28,0,0,0-5,2.56,21.93,21.93,0,0,1-3,1.27,3,3,0,0,0-1.17.8,9.29,9.29,0,0,1-3.78,2.65,9.45,9.45,0,0,0-2.49,1.37,11.5,11.5,0,0,0-1.38,1.32,16.76,16.76,0,0,1-4.5,3.48c-.8.43-1.55,1-2.33,1.41S81,63.6,80,64.06a7.61,7.61,0,0,0-1.83,1.3A12.06,12.06,0,0,1,76,67.17c-.64.37-1.32.68-2,1A29,29,0,0,1,70,70.09a.45.45,0,0,1-.51,0,.46.46,0,0,1-.1-.5,2.21,2.21,0,0,1,.45-.75,2.54,2.54,0,0,0,.56-.89,7.24,7.24,0,0,1,.74-1.47,49.5,49.5,0,0,0,2.74-5.26,26,26,0,0,1,1.27-3c.52-.92,1-1.86,1.54-2.78a14.09,14.09,0,0,0,1.66-3.79c.06-.27,0-.32-.26-.35-1.11-.15-2.22-.34-3.33-.49-.73-.09-1.47-.13-2.21-.2l-1.2-.17a5.8,5.8,0,0,0-1.86,0A7.93,7.93,0,0,1,66,50.21,6.14,6.14,0,0,0,63.52,50c-.79.09-1.58.15-2.37.25a17.25,17.25,0,0,1-2.69.12,27.29,27.29,0,0,0-5.83.67,18.47,18.47,0,0,1-3.56.38c-1.4,0-2.78.27-4.17.35-1.57.08-3.12.32-4.69.36a17.31,17.31,0,0,0-3.34.58,13.92,13.92,0,0,1-3,.35,17.22,17.22,0,0,0-4.51.68,12.43,12.43,0,0,1-4.41.61,11.3,11.3,0,0,0-3.11.4,20.61,20.61,0,0,0-3.66,1.12c-.95.38-2,.59-2.89,1.05a16.12,16.12,0,0,1-2.32.85c-.33.1-.47-.14-.66-.27s0-.21.08-.31a16.85,16.85,0,0,1,1.18-2.06,8.4,8.4,0,0,0,.9-2.12,10.88,10.88,0,0,1,1.7-3.59c.34-.44.62-.91.92-1.37a2.06,2.06,0,0,0,.34-1c0-.36,0-.72,0-1.08a4.71,4.71,0,0,1,1-3,.1.1,0,0,1,0-.05,6.47,6.47,0,0,0,1.73-3.7,9.3,9.3,0,0,1,2.19-4.48,5.3,5.3,0,0,0,.82-1.81.35.35,0,0,0-.1-.35,5.63,5.63,0,0,0-1-1.19c-.68-.55-1.35-1.1-2-1.63a1.75,1.75,0,0,1-.45-.45,15.16,15.16,0,0,0-3-3c-1.21-1.05-2.57-1.91-3.75-3A105.35,105.35,0,0,0,4.21,17,44.51,44.51,0,0,1,.28,13.94.8.8,0,0,1,0,13.37c.33-.09.53-.4.84-.51A.55.55,0,0,0,1.2,12.54ZM26.61,53.45h0a1.11,1.11,0,0,0,.6-.05,17,17,0,0,0,2-.45,17.53,17.53,0,0,1,4.65-.71A10.69,10.69,0,0,0,36.5,52a44.21,44.21,0,0,1,7.25-.9c.57-.05,1.15-.08,1.73-.14,1-.09,2-.28,3-.28a29.85,29.85,0,0,0,5.25-.61,22.14,22.14,0,0,1,4.66-.48,31,31,0,0,0,4.51-.29,8.77,8.77,0,0,1,3.27.13,7.53,7.53,0,0,0,3.27.21,4.48,4.48,0,0,1,1-.11c1.31.1,2.61.32,3.92.47a24.46,24.46,0,0,1,4.06.7c.2.06.42-.09.6.09a5.72,5.72,0,0,1-.38,1.78,28.78,28.78,0,0,1-1.92,3.85,24.21,24.21,0,0,0-2.13,4.48,35.62,35.62,0,0,1-3,5.91,3.17,3.17,0,0,0-.58,1.61c0,.26.07.28.26.16a3.39,3.39,0,0,0,.77-.29l1.88-1c.57-.3,1.16-.57,1.72-.89a9.85,9.85,0,0,0,1.89-1.58A9.12,9.12,0,0,1,80.33,63a21.58,21.58,0,0,0,2-1c1.22-.69,2.4-1.47,3.63-2.15a13.12,13.12,0,0,0,3-2.53,10.8,10.8,0,0,1,4.26-3,7.55,7.55,0,0,0,3.28-2.15,5.06,5.06,0,0,1,2-1.42,14.34,14.34,0,0,0,2.68-1.15,32.51,32.51,0,0,1,5.4-2.72,19.76,19.76,0,0,0,3.59-1.8,17.77,17.77,0,0,1,3.42-1.81,28.4,28.4,0,0,0,3.71-1.73A20.74,20.74,0,0,1,121,39.73c1.54-.53,3-1.23,4.56-1.74a.59.59,0,0,0,.37-.43,11,11,0,0,0,.4-1.79c0-.4,0-.42-.35-.28-.94.35-1.88.72-2.82,1.06a17.43,17.43,0,0,0-3.38,1.53,23.62,23.62,0,0,1-4,2,11.17,11.17,0,0,0-2.51,1.21,24.42,24.42,0,0,1-5.22,2.65,17.28,17.28,0,0,0-2.75,1.3,18,18,0,0,1-3.93,1.9,3.17,3.17,0,0,0-1.59.94,3.81,3.81,0,0,1-.37.43,8.46,8.46,0,0,1-3.15,2A7.85,7.85,0,0,0,93,52.73a13.66,13.66,0,0,1-2.15,2c-.72.54-1.54.93-2.3,1.4A25.06,25.06,0,0,1,85,58a7.16,7.16,0,0,0-2.55,1.69A7.52,7.52,0,0,1,80,61.46c-.88.4-1.73.88-2.6,1.32-.61.21-1.23.38-1.82.64a.42.42,0,0,1-.48,0,.44.44,0,0,1-.13-.46,2,2,0,0,1,.52-.86c.06-.08.17-.13.18-.25a5.82,5.82,0,0,1,.65-1.74c.62-1.37,1.36-2.69,1.85-4.13a20.22,20.22,0,0,1,.86-2.52,30.07,30.07,0,0,1,1.47-3,1.58,1.58,0,0,0,.15-.38h0s.06,0,.07-.07c.15-.34.3-.68.44-1a6.9,6.9,0,0,0,.65-2.08c0-.11,0-.18-.12-.21-1.22-.23-2.46-.41-3.69-.56-.91-.12-1.83-.17-2.73-.32a4.32,4.32,0,0,0-1.52-.1,7.73,7.73,0,0,1-3.45-.14,9.29,9.29,0,0,0-3.71-.18,22.91,22.91,0,0,1-3.51.23,23.79,23.79,0,0,0-4.69.42c-.89.14-1.76.35-2.65.45-1.33.15-2.68.08-4,.26-.86.12-1.74.17-2.61.25s-1.83.23-2.74.25a17.06,17.06,0,0,0-3.42.46,22.58,22.58,0,0,1-2.71.47c-.56,0-1.12,0-1.68.06a23.46,23.46,0,0,0-4.3.89,10.27,10.27,0,0,1-3.44.49c-.33,0-.67,0-1,0a9.4,9.4,0,0,0-1.4.29c-.11,0-.21,0-.32,0a26.81,26.81,0,0,0-3.06.89c-.64.22-1.23.58-1.89.74a6.65,6.65,0,0,0-1.13.41,25.53,25.53,0,0,1-3.16,1.29,2,2,0,0,0-.8.43s-.09.11-.16.06,0-.12,0-.19c.17-.43.33-.86.49-1.29a12.06,12.06,0,0,0,1.76-3.94,7.55,7.55,0,0,1,1.13-2.74c.33-.48.61-1,.94-1.47a2.41,2.41,0,0,0,.41-1.75,4.61,4.61,0,0,1,.68-3.25c.25-.36.51-.72.8-1.06a2.68,2.68,0,0,0,.51-1c.1-.42.2-.85.27-1.27a9.43,9.43,0,0,1,2-4.68,3,3,0,0,0,.7-1.51.79.79,0,0,0-.11-.95,10,10,0,0,0-1.85-1.71,7.12,7.12,0,0,0-1.14-.84L24.39,26c-.42-.45-.72-1-1.15-1.43-1-1-2.07-1.81-3.12-2.69-.85-.72-1.77-1.34-2.63-2.05-1-.85-2-1.73-3.11-2.55-1.36-1.05-2.8-2-4.19-3S7.32,12.11,5.88,11c-.24-.19-.32,0-.38.16a1,1,0,0,1-.47.65,3.9,3.9,0,0,0-.74.54,1,1,0,0,1-.64.31,1.54,1.54,0,0,0-.77.23c-.38.26-.79.48-1.15.78-.15.12-.12.23,0,.33s.41.26.6.41c1.59,1.29,3.28,2.46,5,3.62,1.53,1.06,3.08,2.09,4.53,3.26.8.65,1.55,1.37,2.38,2a33.42,33.42,0,0,1,5.61,4.87c.24.36.38.79.78,1a.86.86,0,0,0,.13.14,14.77,14.77,0,0,1,2.66,2.52,1.14,1.14,0,0,0,.1.19,1.54,1.54,0,0,1,.29,1.5,6.42,6.42,0,0,1-1.11,2,7.46,7.46,0,0,0-1.46,2.55c-.21.71-.37,1.43-.55,2.15a5.35,5.35,0,0,1-1.28,2.61,4,4,0,0,0-1.2,3.2c0,.14,0,.28,0,.41a3.53,3.53,0,0,1-.67,2.24c-.3.4-.56.82-.84,1.23a10.58,10.58,0,0,0-1,1.74c-.39.91-.61,1.88-1,2.8s-.92,1.46-1.29,2.26a.56.56,0,0,0,.33-.07c1.57-.69,3.19-1.22,4.79-1.82a23.63,23.63,0,0,1,4.75-1.2,8.78,8.78,0,0,1,1.45-.12,13.07,13.07,0,0,0,1.77,0S26.62,53.5,26.61,53.45Zm-7.3-1.2a8.87,8.87,0,0,0,1.72-.7c.89-.43,1.85-.67,2.76-1a22.65,22.65,0,0,1,2.65-1,14.44,14.44,0,0,1,4.27-.73,13.15,13.15,0,0,0,4.18-.66,16.16,16.16,0,0,1,3.77-.69,22.53,22.53,0,0,0,4.4-.54,12.79,12.79,0,0,1,2.76-.42c1.6,0,3.18-.3,4.77-.4,1.26-.07,2.5-.29,3.77-.29a11.42,11.42,0,0,0,2.33-.22,28.37,28.37,0,0,1,6-.72,38,38,0,0,0,4.65-.3,7.88,7.88,0,0,1,2.65.14,7.8,7.8,0,0,0,3.36.27,5.26,5.26,0,0,1,1.77,0c.45.07.9.16,1.35.21a40.07,40.07,0,0,1,5.23.82,1.61,1.61,0,0,0,.37.07c.43,0,.49.1.43.53a11.82,11.82,0,0,1-1.44,4A25.45,25.45,0,0,0,79,55.52a28.44,28.44,0,0,1-2.1,4.92,2.4,2.4,0,0,0-.39,1.75,2.93,2.93,0,0,0,.88-.29c.78-.39,1.55-.81,2.36-1.17a5.47,5.47,0,0,0,1.77-1.19,9,9,0,0,1,3.36-2.29,14.17,14.17,0,0,0,1.71-.83c.85-.47,1.66-1,2.52-1.47a11,11,0,0,0,3.12-2.52,9.36,9.36,0,0,1,3.92-2.72,7.05,7.05,0,0,0,3.15-2.18,3.27,3.27,0,0,1,1.4-1,15.16,15.16,0,0,0,2.44-1,38.7,38.7,0,0,1,6.24-3,12.08,12.08,0,0,0,2.45-1.26,17.37,17.37,0,0,1,3.27-1.74,28.13,28.13,0,0,0,4.61-2.26,14.32,14.32,0,0,1,2.44-1.15c1.57-.57,3.13-1.19,4.72-1.8l-.17-.14c-1.85-1.38-3.68-2.79-5.47-4.23-2.42-1.94-4.93-3.77-7.39-5.66-1.74-1.34-3.47-2.67-5.25-3.95a.48.48,0,0,0-.6,0c-.57.33-1.18.61-1.73,1-.17.11-.34.22-.55.1a.55.55,0,0,1-.26-.54,6.77,6.77,0,0,1,.54-2.81c.05-.12.11-.23,0-.33a8.73,8.73,0,0,0-.7-.54,19.07,19.07,0,0,1-3.7-2.68,1.14,1.14,0,0,0-.53-.33,7.81,7.81,0,0,1-1.67-.68,3.31,3.31,0,0,1-.92-.66c-.67-.63-1.36-1.25-2-1.86a3.54,3.54,0,0,0-1.52-.83,6,6,0,0,1-2.06-1c-.84-.6-1.52-1.38-2.33-2a3.19,3.19,0,0,0-1.43-.78,2.3,2.3,0,0,1-.8-.31c-1.25-.71-2.41-1.57-3.6-2.37a10.87,10.87,0,0,0-1.89-1.22A12.32,12.32,0,0,1,81,1.55c-.09-.06-.18-.15-.32-.12.33.67.61,1.35,1,2a2.55,2.55,0,0,1,.3.7,4.81,4.81,0,0,0,.41,1.23c.59,1.21,1.17,2.42,1.76,3.62s1.1,2.73,1.77,4a14.74,14.74,0,0,1,1,2.4c.07.21.16.4,0,.59s0,.11.07.15a.26.26,0,0,1,.07.32c0,.12-.17.14-.29.14a1.71,1.71,0,0,1-.5-.1,27.11,27.11,0,0,0-3.2-.9c-1.11-.25-2.21-.51-3.3-.8a48.29,48.29,0,0,0-6-1.42,6.37,6.37,0,0,0-2.68-.06,1,1,0,0,1-.65-.07c-.66-.24-1.31-.49-2-.71a4,4,0,0,0-2.43-.18,2.64,2.64,0,0,1-1,0c-1.18-.17-2.31-.54-3.48-.71a6,6,0,0,0-2-.08,11.2,11.2,0,0,1-3.32,0,12.54,12.54,0,0,1-2.24-.67,15,15,0,0,0-5.16-.41,3.56,3.56,0,0,1-.73,0,30.44,30.44,0,0,1-3-.41,16,16,0,0,0-3.83-.48,32.24,32.24,0,0,1-4.28-.25,21,21,0,0,0-3.07-.13,13.69,13.69,0,0,1-3.88-.33,1.89,1.89,0,0,0-.82,0,20.32,20.32,0,0,1-6,0,11.09,11.09,0,0,0-4.1.06,3.38,3.38,0,0,1-.63.07c-2.06,0-4.11.11-6.16.19-.33,0-.66,0-1,0-1.26.14-2.53.24-3.79.3a5.88,5.88,0,0,0-1.25.24c-.14,0-.18.09-.06.21s.43.44.68.62c1.57,1.19,3.1,2.42,4.72,3.55C12.7,15,14,15.78,15.13,16.7,16.1,17.46,17,18.27,18,19c1.68,1.34,3.4,2.62,5,4.06a8,8,0,0,1,1.63,1.85,3.09,3.09,0,0,0,.81.84,12.89,12.89,0,0,1,2.71,2.71,1.29,1.29,0,0,1,.22,1.17,6,6,0,0,1-1.1,2.15A6.8,6.8,0,0,0,26,34.19c-.16.62-.29,1.26-.41,1.89a5.42,5.42,0,0,1-1.25,2.83,3.69,3.69,0,0,0-1,3,4.66,4.66,0,0,1,0,1.49A4.33,4.33,0,0,1,22.5,45a11.46,11.46,0,0,0-1.83,4.26,3.26,3.26,0,0,1-.46,1.3c-.38.52-.59,1.13-.94,1.66,0,0,0,0,0,.07Zm67-36.36a25,25,0,0,0-1.28-3q-1.22-2.73-2.5-5.42A16.13,16.13,0,0,1,81.1,4.28.92.92,0,0,0,81,4a23.56,23.56,0,0,1-1.29-2.62c-.1-.25-.23-.21-.38-.06a1.45,1.45,0,0,0-.19.29,4.67,4.67,0,0,1-.61.89,2.44,2.44,0,0,0-.57,1.23c0,.16-.1.28-.25.31s-.15.14-.06.25a3.35,3.35,0,0,1,.68,1,11.94,11.94,0,0,0,.89,1.79,1.85,1.85,0,0,1,.25.58,8.07,8.07,0,0,0,.81,2c.73,1.45,1.5,2.89,2.11,4.4.19.47.35.91,1,.9l.06,0C84.32,15.29,85.31,15.48,86.29,15.89Z" transform="translate(0 0)" style="fill:#070603"/><path d="M1.2,12.54a.55.55,0,0,1-.36.32c-.31.11-.51.42-.84.51a.46.46,0,0,1,.42-.52C.69,12.79.91,12.58,1.2,12.54Z" transform="translate(0 0)" style="fill:#7b571e"/><path d="M19.27,52.22c.35-.53.56-1.14.94-1.66a3.26,3.26,0,0,0,.46-1.3A11.46,11.46,0,0,1,22.5,45a4.33,4.33,0,0,0,.83-1.59,4.66,4.66,0,0,0,0-1.49,3.69,3.69,0,0,1,1-3,5.42,5.42,0,0,0,1.25-2.83c.12-.63.25-1.27.41-1.89a6.8,6.8,0,0,1,1.25-2.38,6,6,0,0,0,1.1-2.15,1.29,1.29,0,0,0-.22-1.17,12.89,12.89,0,0,0-2.71-2.71,3.09,3.09,0,0,1-.81-.84A8,8,0,0,0,23,23.09c-1.6-1.44-3.32-2.72-5-4.06-1-.76-1.88-1.57-2.85-2.33C14,15.78,12.7,15,11.48,14.11,9.86,13,8.33,11.75,6.76,10.56c-.25-.18-.45-.42-.68-.62s-.08-.18.06-.21a5.88,5.88,0,0,1,1.25-.24c1.26-.06,2.53-.16,3.79-.3.32,0,.65,0,1,0,2.05-.08,4.1-.16,6.16-.19A3.38,3.38,0,0,0,19,8.88a11.09,11.09,0,0,1,4.1-.06,20.32,20.32,0,0,0,6,0,1.89,1.89,0,0,1,.82,0,13.69,13.69,0,0,0,3.88.33,21,21,0,0,1,3.07.13,32.24,32.24,0,0,0,4.28.25,16,16,0,0,1,3.83.48,30.44,30.44,0,0,0,3,.41,3.56,3.56,0,0,0,.73,0,15,15,0,0,1,5.16.41,12.54,12.54,0,0,0,2.24.67,11.2,11.2,0,0,0,3.32,0,6,6,0,0,1,2,.08c1.17.17,2.3.54,3.48.71a2.64,2.64,0,0,0,1,0,4,4,0,0,1,2.43.18c.66.22,1.31.47,2,.71a1,1,0,0,0,.65.07,6.37,6.37,0,0,1,2.68.06,48.29,48.29,0,0,1,6,1.42c1.09.29,2.19.55,3.3.8a27.11,27.11,0,0,1,3.2.9,1.71,1.71,0,0,0,.5.1c.12,0,.24,0,.29-.14a.26.26,0,0,0-.07-.32s-.17-.06-.07-.15.11-.38,0-.59a14.74,14.74,0,0,0-1-2.4c-.67-1.32-1.11-2.73-1.77-4s-1.17-2.41-1.76-3.62a4.81,4.81,0,0,1-.41-1.23,2.55,2.55,0,0,0-.3-.7c-.37-.63-.65-1.31-1-2,.14,0,.23.06.32.12a12.32,12.32,0,0,0,1.78.89,10.87,10.87,0,0,1,1.89,1.22c1.19.8,2.35,1.66,3.6,2.37a2.3,2.3,0,0,0,.8.31,3.19,3.19,0,0,1,1.43.78c.81.63,1.49,1.41,2.33,2a6,6,0,0,0,2.06,1,3.54,3.54,0,0,1,1.52.83c.68.61,1.37,1.23,2,1.86a3.31,3.31,0,0,0,.92.66,7.81,7.81,0,0,0,1.67.68,1.14,1.14,0,0,1,.53.33,19.07,19.07,0,0,0,3.7,2.68,8.73,8.73,0,0,1,.7.54c.15.1.09.21,0,.33a6.77,6.77,0,0,0-.54,2.81.55.55,0,0,0,.26.54c.21.12.38,0,.55-.1.55-.38,1.16-.66,1.73-1a.48.48,0,0,1,.6,0c1.78,1.28,3.51,2.61,5.25,3.95,2.46,1.89,5,3.72,7.39,5.66,1.79,1.44,3.62,2.85,5.47,4.23l.17.14c-1.59.61-3.15,1.23-4.72,1.8a14.32,14.32,0,0,0-2.44,1.15,28.13,28.13,0,0,1-4.61,2.26,17.37,17.37,0,0,0-3.27,1.74,12.08,12.08,0,0,1-2.45,1.26,38.7,38.7,0,0,0-6.24,3,15.16,15.16,0,0,1-2.44,1,3.27,3.27,0,0,0-1.4,1,7.05,7.05,0,0,1-3.15,2.18,9.36,9.36,0,0,0-3.92,2.72A11,11,0,0,1,89.11,55c-.86.45-1.67,1-2.52,1.47a14.17,14.17,0,0,1-1.71.83,9,9,0,0,0-3.36,2.29,5.47,5.47,0,0,1-1.77,1.19c-.81.36-1.58.78-2.36,1.17a2.93,2.93,0,0,1-.88.29,2.4,2.4,0,0,1,.39-1.75A28.44,28.44,0,0,0,79,55.52a25.45,25.45,0,0,1,2.07-4.9,11.82,11.82,0,0,0,1.44-4c.06-.43,0-.52-.43-.53a1.61,1.61,0,0,1-.37-.07,40.07,40.07,0,0,0-5.23-.82c-.45,0-.9-.14-1.35-.21a5.26,5.26,0,0,0-1.77,0A7.8,7.8,0,0,1,70,44.71a7.88,7.88,0,0,0-2.65-.14,38,38,0,0,1-4.65.3,28.37,28.37,0,0,0-6,.72,11.42,11.42,0,0,1-2.33.22c-1.27,0-2.51.22-3.77.29-1.59.1-3.17.38-4.77.4a12.79,12.79,0,0,0-2.76.42,22.53,22.53,0,0,1-4.4.54,16.16,16.16,0,0,0-3.77.69,13.15,13.15,0,0,1-4.18.66,14.44,14.44,0,0,0-4.27.73,22.65,22.65,0,0,0-2.65,1c-.91.38-1.87.62-2.76,1a8.87,8.87,0,0,1-1.72.7Zm71.51-31.3-.12,0c-.88-.28-1.76-.59-2.65-.84-1.25-.34-2.51-.63-3.77-.94-.77-.19-1.55-.39-2.33-.53-1-.18-2-.38-3.07-.54-1.24-.19-2.48-.37-3.73-.48-1.06-.09-2.09-.31-3.14-.49l-1.47-.22c-1-.14-2-.26-3-.41-.75-.12-1.49-.32-2.23-.4a19.36,19.36,0,0,1-2.4-.39,33,33,0,0,0-3.42-.58c-1-.12-2.05-.25-3.07-.39-.76-.11-1.51-.27-2.27-.37-1-.13-1.92-.25-2.86-.47a12.59,12.59,0,0,0-3.28-.4,47.06,47.06,0,0,1-5.7-.41c-1.44-.13-2.88-.23-4.33-.25a10.8,10.8,0,0,1-1.6-.14,29.55,29.55,0,0,0-3.72-.47C31,12.1,29.43,12,27.82,12c-2.12-.05-4.24,0-6.36,0a.61.61,0,0,0-.37.06.88.88,0,0,1-.64.06,4.83,4.83,0,0,0-.84-.11,29,29,0,0,0-2.95,0,1,1,0,0,0-.78.61.7.7,0,0,0,.35.79c.3.22.57.5.89.7a11.54,11.54,0,0,1,2.29,1.68c.61.64,1.28,1.19,1.9,1.81.79.78,1.64,1.5,2.43,2.27,1,.93,1.89,1.9,2.83,2.86.62.62,1.29,1.19,1.92,1.8.92.9,1.7,1.94,2.67,2.79.08.06.05.11,0,.19a6,6,0,0,1-.68,1.28,9.2,9.2,0,0,0-1.31,2.69c-.33,1.15-.66,2.31-1.09,3.43a45.43,45.43,0,0,0-1.56,4.37c-.38,1.43-.84,2.83-1.29,4.24-.31,1-.79,1.91-1.08,2.9a1,1,0,0,0,.95,1.29c.53,0,1.06,0,1.58-.13a45.08,45.08,0,0,0,4.49-.88c1-.26,2-.29,2.93-.5.41-.08.83-.12,1.24-.19l2.14-.41c.46-.09.92-.21,1.39-.29,1.08-.19,2.16-.33,3.23-.54s2-.23,3-.36c.46-.06.93,0,1.39-.07.77-.07,1.55-.14,2.32-.24.46-.07.93,0,1.39-.09,1-.11,1.92-.23,2.89-.29.5,0,1-.08,1.5-.1.85,0,1.7-.13,2.55-.22.44,0,.88,0,1.32-.08a19.58,19.58,0,0,1,3.75-.12c1.14.09,2.28.1,3.42.14.36,0,.72,0,1.07.07,1.24.14,2.48.06,3.72.08l1.66,0a24.44,24.44,0,0,1,2.84.13c.93.12,1.86.21,2.8.3,1.1.11,2.2.15,3.31.21a20.88,20.88,0,0,1,3.53.42,11.06,11.06,0,0,0,1.13.3c.38,0,.75.08,1.13.12.12,0,.14.06.07.16-.21.34-.42.69-.64,1-.39.63-.86,1.2-1.21,1.86a15.4,15.4,0,0,1-1.44,2.14,9.83,9.83,0,0,0-.94,1.19c-.48.85-.88,1.75-1.45,2.56a5.93,5.93,0,0,0-.59,1,.85.85,0,0,0-.1.68,1.14,1.14,0,0,1-.07.68.48.48,0,0,0,.17.62.45.45,0,0,0,.59-.12,1.5,1.5,0,0,1,1-.4,1.24,1.24,0,0,0,1.06-.54.4.4,0,0,1,.13-.13l1.34-.83a11.14,11.14,0,0,0,1.15-.72c.78-.64,1.6-1.22,2.33-1.9s1.35-.9,2-1.4a6.79,6.79,0,0,1,1.73-1,15.23,15.23,0,0,0,2.26-1.1c1-.6,2-1.2,3-1.83a20.35,20.35,0,0,1,4.55-2.14,17.31,17.31,0,0,0,2.73-1.18c1.17-.64,2.29-1.38,3.43-2.09a27.5,27.5,0,0,0,2.43-1.6,14.45,14.45,0,0,1,2.15-1.45c.73-.37,1.46-.75,2.16-1.18a13.17,13.17,0,0,1,1.75-1,6.26,6.26,0,0,0,1.6-1,2,2,0,0,1,1.26-.57.74.74,0,0,0,.75-.53.87.87,0,0,0-.18-.94,9,9,0,0,1-1-1.1,1.71,1.71,0,0,0-.42-.47c-.63-.51-1.32-.93-1.94-1.46a18.2,18.2,0,0,0-2.24-1.65c-.5-.3-1-.65-1.46-1A18.86,18.86,0,0,1,111,26.35a31.34,31.34,0,0,0-3.54-2.75c-.23-.16-.49-.29-.7-.47a21.75,21.75,0,0,0-2.44-1.75,15.41,15.41,0,0,1-2-1.56,12.28,12.28,0,0,0-2-1.47,10,10,0,0,1-1.13-.69,23.88,23.88,0,0,0-2.64-1.83,4.77,4.77,0,0,1-.87-.52c-.6-.54-1.31-.92-1.95-1.4a13.88,13.88,0,0,1-2.07-1.59c-.22-.24-.53-.4-.74-.64a3.58,3.58,0,0,0-1.56-1.13,1,1,0,0,0-1.4.91,3.15,3.15,0,0,0,.27.87c.23.76.5,1.52.72,2.29a6.06,6.06,0,0,1,.36,1.24,1.9,1.9,0,0,0,.13.71c.25.68.52,1.36.79,2a8.84,8.84,0,0,1,.6,2.31Z" transform="translate(0 0)" style="fill:#feda01"/><path d="M26.55,53.51a13.07,13.07,0,0,1-1.77,0,8.78,8.78,0,0,0-1.45.12,23.63,23.63,0,0,0-4.75,1.2c-1.6.6-3.22,1.13-4.79,1.82a.56.56,0,0,1-.33.07c.37-.8.93-1.47,1.29-2.26a8.42,8.42,0,0,0,1.38-.68,6,6,0,0,0,1.68-1.16c.17-.16.32-.36.58-.39-.16.43-.32.86-.49,1.29,0,.07-.08.14,0,.19s.11,0,.16-.06a2,2,0,0,1,.8-.43A25.53,25.53,0,0,0,22,51.94a6.65,6.65,0,0,1,1.13-.41c.66-.16,1.25-.52,1.89-.74a26.81,26.81,0,0,1,3.06-.89c.11,0,.21,0,.32,0,0,.21.21.15.32.12a2.41,2.41,0,0,0,.54-.16c.18-.07.41-.06.54-.25.34,0,.68,0,1,0a10.27,10.27,0,0,0,3.44-.49,23.46,23.46,0,0,1,4.3-.89c.56,0,1.12,0,1.68-.06A22.58,22.58,0,0,0,43,47.66a17.06,17.06,0,0,1,3.42-.46c.91,0,1.83-.16,2.74-.25s1.75-.13,2.61-.25c1.34-.18,2.69-.11,4-.26.89-.1,1.76-.31,2.65-.45a23.79,23.79,0,0,1,4.69-.42,22.91,22.91,0,0,0,3.51-.23,9.29,9.29,0,0,1,3.71.18,7.73,7.73,0,0,0,3.45.14,4.32,4.32,0,0,1,1.52.1c.9.15,1.82.2,2.73.32,1.23.15,2.47.33,3.69.56.16,0,.14.1.12.21a6.9,6.9,0,0,1-.65,2.08c-.14.34-.29.68-.44,1l-.07.07h0a5.93,5.93,0,0,0-1.21.6.54.54,0,0,1-.4.17c-.18-.18-.4,0-.6-.09a24.46,24.46,0,0,0-4.06-.7c-1.31-.15-2.61-.37-3.92-.47a4.48,4.48,0,0,0-1,.11,7.53,7.53,0,0,1-3.27-.21,8.77,8.77,0,0,0-3.27-.13,31,31,0,0,1-4.51.29,22.14,22.14,0,0,0-4.66.48,29.85,29.85,0,0,1-5.25.61c-1,0-2,.19-3,.28-.58.06-1.16.09-1.73.14a44.21,44.21,0,0,0-7.25.9,10.69,10.69,0,0,1-2.65.25A17.53,17.53,0,0,0,29.2,53a17,17,0,0,1-2,.45c-.08-.25-.2-.35-.42-.12-.05.06-.15.08-.18.17h0Z" transform="translate(0 0)" style="fill:#7b571e"/><path d="M23.41,31.85a14.77,14.77,0,0,0-2.66-2.52.86.86,0,0,1-.13-.14l.23-.09c.32-.09.18-.21,0-.33a2.37,2.37,0,0,0-.46-.32c-.19-.09-.32-.32-.57-.29a33.42,33.42,0,0,0-5.61-4.87c-.83-.61-1.58-1.33-2.38-2-1.45-1.17-3-2.2-4.53-3.26-1.69-1.16-3.38-2.33-5-3.62-.19-.15-.41-.27-.6-.41s-.17-.21,0-.33c.36-.3.77-.52,1.15-.78a1.54,1.54,0,0,1,.77-.23,1,1,0,0,0,.64-.31A3.9,3.9,0,0,1,5,11.83a1,1,0,0,0,.47-.65c.06-.19.14-.35.38-.16,1.44,1.09,2.84,2.23,4.31,3.29s2.83,1.92,4.19,3c1.06.82,2.08,1.7,3.11,2.55.86.71,1.78,1.33,2.63,2.05,1.05.88,2.15,1.71,3.12,2.69.43.44.73,1,1.15,1.43a3.13,3.13,0,0,0-.68-.06c-.07,0-.14,0-.12.1s.37.33.62.35.23-.18.24-.33a7.12,7.12,0,0,1,1.14.84,10,10,0,0,1,1.85,1.71.79.79,0,0,1,.11.95,1.94,1.94,0,0,0-.66.2A5.71,5.71,0,0,0,25,30.85,4.42,4.42,0,0,1,23.41,31.85Z" transform="translate(0 0)" style="fill:#7b571e"/><path d="M77.44,62.78c.87-.44,1.72-.92,2.6-1.32a7.52,7.52,0,0,0,2.4-1.73A7.16,7.16,0,0,1,85,58a25.06,25.06,0,0,0,3.58-1.9c.76-.47,1.58-.86,2.3-1.4a13.66,13.66,0,0,0,2.15-2,7.85,7.85,0,0,1,3.28-2.26,8.46,8.46,0,0,0,3.15-2,3.81,3.81,0,0,0,.37-.43,3.17,3.17,0,0,1,1.59-.94,18,18,0,0,0,3.93-1.9,17.28,17.28,0,0,1,2.75-1.3,24.42,24.42,0,0,0,5.22-2.65,11.17,11.17,0,0,1,2.51-1.21,23.62,23.62,0,0,0,4-2,17.43,17.43,0,0,1,3.38-1.53c.94-.34,1.88-.71,2.82-1.06.36-.14.4-.12.35.28a11,11,0,0,1-.4,1.79.59.59,0,0,1-.37.43c-1.55.51-3,1.21-4.56,1.74a20.74,20.74,0,0,0-3.69,1.82,28.4,28.4,0,0,1-3.71,1.73,17.77,17.77,0,0,0-3.42,1.81,19.76,19.76,0,0,1-3.59,1.8,32.51,32.51,0,0,0-5.4,2.72,14.34,14.34,0,0,1-2.68,1.15,5.06,5.06,0,0,0-2,1.42,7.55,7.55,0,0,1-3.28,2.15,10.8,10.8,0,0,0-4.26,3,13.12,13.12,0,0,1-3,2.53c-1.23.68-2.41,1.46-3.63,2.15a21.58,21.58,0,0,1-2,1,9.12,9.12,0,0,0-2.73,1.82,9.85,9.85,0,0,1-1.89,1.58c-.56.32-1.15.59-1.72.89l-1.88,1a3.39,3.39,0,0,1-.77.29,1.55,1.55,0,0,1,.27-1.11,11,11,0,0,1,1.73-1.75,11.91,11.91,0,0,0,1.81-1.67c.36-.41.78-.81,1.42-.59a.23.23,0,0,0,.18,0A5.23,5.23,0,0,0,77.44,62.78Z" transform="translate(0 0)" style="fill:#7b571e"/><path d="M23.41,31.85a4.42,4.42,0,0,0,1.58-1,5.71,5.71,0,0,1,1.9-1.09,1.94,1.94,0,0,1,.66-.2,3,3,0,0,1-.7,1.51,9.43,9.43,0,0,0-2,4.68c-.07.42-.17.85-.27,1.27a2.68,2.68,0,0,1-.51,1c-.29.34-.55.7-.8,1.06a4.61,4.61,0,0,0-.68,3.25,2.41,2.41,0,0,1-.41,1.75c-.33.48-.61,1-.94,1.47a7.55,7.55,0,0,0-1.13,2.74,12.06,12.06,0,0,1-1.76,3.94c-.26,0-.41.23-.58.39a6,6,0,0,1-1.68,1.16,8.42,8.42,0,0,1-1.38.68c.35-.92.57-1.89,1-2.8a10.58,10.58,0,0,1,1-1.74c.28-.41.54-.83.84-1.23a3.53,3.53,0,0,0,.67-2.24c0-.13,0-.27,0-.41a4,4,0,0,1,1.2-3.2,5.35,5.35,0,0,0,1.28-2.61c.18-.72.34-1.44.55-2.15a7.46,7.46,0,0,1,1.46-2.55,6.42,6.42,0,0,0,1.11-2,1.54,1.54,0,0,0-.29-1.5A1.14,1.14,0,0,1,23.41,31.85Z" transform="translate(0 0)" style="fill:#b67207"/><path d="M86.29,15.89c-1-.41-2-.6-2.92-.91l-.06,0c-.61,0-.77-.43-1-.9-.61-1.51-1.38-3-2.11-4.4a8.07,8.07,0,0,1-.81-2,1.85,1.85,0,0,0-.25-.58,11.94,11.94,0,0,1-.89-1.79,3.35,3.35,0,0,0-.68-1c-.09-.11-.16-.2.06-.25s.2-.15.25-.31a2.44,2.44,0,0,1,.57-1.23,4.67,4.67,0,0,0,.61-.89,1.45,1.45,0,0,1,.19-.29c.15-.15.28-.19.38.06A23.56,23.56,0,0,0,81,4a.92.92,0,0,1,.14.32,16.13,16.13,0,0,0,1.41,3.18q1.29,2.68,2.5,5.42A25,25,0,0,1,86.29,15.89Z" transform="translate(0 0)" style="fill:#b67207"/><path d="M77.44,62.78a5.23,5.23,0,0,1-.69.64.23.23,0,0,1-.18,0c-.64-.22-1.06.18-1.42.59a11.91,11.91,0,0,1-1.81,1.67,11,11,0,0,0-1.73,1.75,1.55,1.55,0,0,0-.27,1.11c-.19.12-.25.1-.26-.16a3.17,3.17,0,0,1,.58-1.61,35.62,35.62,0,0,0,3-5.91,24.21,24.21,0,0,1,2.13-4.48,28.78,28.78,0,0,0,1.92-3.85,5.72,5.72,0,0,0,.38-1.78.54.54,0,0,0,.4-.17,5.93,5.93,0,0,1,1.21-.6,1.58,1.58,0,0,1-.15.38,30.07,30.07,0,0,0-1.47,3,20.22,20.22,0,0,0-.86,2.52c-.49,1.44-1.23,2.76-1.85,4.13a5.82,5.82,0,0,0-.65,1.74c0,.12-.12.17-.18.25a2,2,0,0,0-.52.86.44.44,0,0,0,.13.46.42.42,0,0,0,.48,0C76.21,63.16,76.83,63,77.44,62.78Z" transform="translate(0 0)" style="fill:#b67207"/><path d="M19.84,28.16c.25,0,.38.2.57.29a2.37,2.37,0,0,1,.46.32c.16.12.3.24,0,.33l-.23.09C20.22,29,20.08,28.52,19.84,28.16Z" transform="translate(0 0)" style="fill:#b67207"/><path d="M24.45,26.06c0,.15,0,.34-.24.33s-.6-.19-.62-.35.05-.09.12-.1a3.13,3.13,0,0,1,.68.06Z" transform="translate(0 0)" style="fill:#b67207"/><path d="M29.84,49.59c-.13.19-.36.18-.54.25a2.41,2.41,0,0,1-.54.16c-.11,0-.28.09-.32-.12A9.4,9.4,0,0,1,29.84,49.59Z" transform="translate(0 0)" style="fill:#b67207"/><path d="M26.6,53.46c0-.09.13-.11.18-.17.22-.23.34-.13.42.12A1.11,1.11,0,0,1,26.6,53.46Z" transform="translate(0 0)" style="fill:#b67207"/><path d="M80.68,50l.07-.07S80.73,50,80.68,50Z" transform="translate(0 0)" style="fill:#b67207"/><path d="M19.31,52.25l0,0s0,0,0-.07Z" transform="translate(0 0)" style="fill:#feda01"/><path d="M26.55,53.51l.06-.06S26.58,53.5,26.55,53.51Z" transform="translate(0 0)" style="fill:#b67207"/><path d="M90.78,20.92a8.84,8.84,0,0,0-.6-2.31c-.27-.68-.54-1.36-.79-2a1.9,1.9,0,0,1-.13-.71,6.06,6.06,0,0,0-.36-1.24c-.22-.77-.49-1.53-.72-2.29a3.15,3.15,0,0,1-.27-.87,1,1,0,0,1,1.4-.91,3.58,3.58,0,0,1,1.56,1.13c.21.24.52.4.74.64a13.88,13.88,0,0,0,2.07,1.59c.64.48,1.35.86,1.95,1.4a4.77,4.77,0,0,0,.87.52,23.88,23.88,0,0,1,2.64,1.83,10,10,0,0,0,1.13.69,12.28,12.28,0,0,1,2,1.47,15.41,15.41,0,0,0,2,1.56,21.75,21.75,0,0,1,2.44,1.75c.21.18.47.31.7.47A31.34,31.34,0,0,1,111,26.35a18.86,18.86,0,0,0,1.81,1.26c.48.35,1,.7,1.46,1a18.2,18.2,0,0,1,2.24,1.65c.62.53,1.31.95,1.94,1.46a1.71,1.71,0,0,1,.42.47,9,9,0,0,0,1,1.1.87.87,0,0,1,.18.94.74.74,0,0,1-.75.53,2,2,0,0,0-1.26.57,6.26,6.26,0,0,1-1.6,1,13.17,13.17,0,0,0-1.75,1c-.7.43-1.43.81-2.16,1.18A14.45,14.45,0,0,0,110.42,40a27.5,27.5,0,0,1-2.43,1.6c-1.14.71-2.26,1.45-3.43,2.09a17.31,17.31,0,0,1-2.73,1.18A20.35,20.35,0,0,0,97.28,47c-1,.63-2,1.23-3,1.83A15.23,15.23,0,0,1,92,49.91a6.79,6.79,0,0,0-1.73,1c-.64.5-1.39.84-2,1.4s-1.55,1.26-2.33,1.9a11.14,11.14,0,0,1-1.15.72l-1.34.83a.4.4,0,0,0-.13.13,1.24,1.24,0,0,1-1.06.54,1.5,1.5,0,0,0-1,.4.45.45,0,0,1-.59.12.48.48,0,0,1-.17-.62,1.14,1.14,0,0,0,.07-.68.85.85,0,0,1,.1-.68,5.93,5.93,0,0,1,.59-1c.57-.81,1-1.71,1.45-2.56a9.83,9.83,0,0,1,.94-1.19A15.4,15.4,0,0,0,85.05,48c.35-.66.82-1.23,1.21-1.86.22-.33.43-.68.64-1,.07-.1,0-.15-.07-.16-.38,0-.75-.09-1.13-.12a11.06,11.06,0,0,1-1.13-.3A20.88,20.88,0,0,0,81,44.16c-1.11-.06-2.21-.1-3.31-.21-.94-.09-1.87-.18-2.8-.3a24.44,24.44,0,0,0-2.84-.13l-1.66,0c-1.24,0-2.48.06-3.72-.08-.35,0-.71-.05-1.07-.07-1.14,0-2.28-.05-3.42-.14a19.58,19.58,0,0,0-3.75.12c-.44.05-.88,0-1.32.08-.85.09-1.7.19-2.55.22-.5,0-1,.06-1.5.1-1,.06-1.93.18-2.89.29-.46.06-.93,0-1.39.09-.77.1-1.55.17-2.32.24-.46,0-.93,0-1.39.07-1,.13-2,.17-3,.36s-2.15.35-3.23.54c-.47.08-.93.2-1.39.29L35.37,46c-.41.07-.83.11-1.24.19-1,.21-2,.24-2.93.5a45.08,45.08,0,0,1-4.49.88c-.52.08-1.05.1-1.58.13a1,1,0,0,1-.95-1.29c.29-1,.77-1.92,1.08-2.9.45-1.41.91-2.81,1.29-4.24a45.43,45.43,0,0,1,1.56-4.37c.43-1.12.76-2.28,1.09-3.43a9.2,9.2,0,0,1,1.31-2.69,6,6,0,0,0,.68-1.28c0-.08,0-.13,0-.19-1-.85-1.75-1.89-2.67-2.79-.63-.61-1.3-1.18-1.92-1.8-.94-1-1.86-1.93-2.83-2.86-.79-.77-1.64-1.49-2.43-2.27-.62-.62-1.29-1.17-1.9-1.81a11.54,11.54,0,0,0-2.29-1.68c-.32-.2-.59-.48-.89-.7a.7.7,0,0,1-.35-.79,1,1,0,0,1,.78-.61,29,29,0,0,1,2.95,0,4.83,4.83,0,0,1,.84.11.88.88,0,0,0,.64-.06.61.61,0,0,1,.37-.06c2.12,0,4.24,0,6.36,0,1.61,0,3.22.13,4.84.2a29.55,29.55,0,0,1,3.72.47,10.8,10.8,0,0,0,1.6.14c1.45,0,2.89.12,4.33.25a47.06,47.06,0,0,0,5.7.41,12.59,12.59,0,0,1,3.28.4c.94.22,1.9.34,2.86.47.76.1,1.51.26,2.27.37,1,.14,2,.27,3.07.39a33,33,0,0,1,3.42.58,19.36,19.36,0,0,0,2.4.39c.74.08,1.48.28,2.23.4,1,.15,2,.27,3,.41l1.47.22c1,.18,2.08.4,3.14.49,1.25.11,2.49.29,3.73.48,1,.16,2,.36,3.07.54.78.14,1.56.34,2.33.53,1.26.31,2.52.6,3.77.94.89.25,1.77.56,2.65.84l.12,0h0ZM21.12,14.48a6.92,6.92,0,0,1,.78.63c1.25,1.15,2.5,2.3,3.73,3.48.79.76,1.51,1.6,2.31,2.35s1.77,1.72,2.64,2.6c.64.67,1.25,1.38,1.91,2a.63.63,0,0,1,.17.23.63.63,0,0,0,.4.41.78.78,0,0,1,.47.76,3.88,3.88,0,0,1-.6,2.13,13.29,13.29,0,0,0-1.5,3c-.27.84-.57,1.67-.85,2.52a22.1,22.1,0,0,1-.87,2.3A15.3,15.3,0,0,0,29,38.65c-.57,2-1.23,4-1.86,6-.17.54-.18.56.4.46,1.08-.19,2.16-.37,3.22-.65a10.91,10.91,0,0,1,2-.41A17.65,17.65,0,0,0,36,43.45c.68-.18,1.38-.31,2.06-.47s1.41-.25,2.11-.36c1.13-.19,2.24-.42,3.37-.55s2.18-.17,3.27-.25c.54,0,1.07-.08,1.61-.14l2.92-.3,2.26-.2,2.86-.25L58,40.79c.82-.08,1.64-.2,2.45-.22,1.31,0,2.62,0,3.93.11a5.68,5.68,0,0,1,.72,0,8,8,0,0,0,1,.11c1,0,1.94.09,2.92.07.64,0,1.28,0,1.93,0,1.14.09,2.28.09,3.42.15a21.57,21.57,0,0,1,2.26.21,19.68,19.68,0,0,0,2.29.21c1.29,0,2.57.14,3.85.21a10.55,10.55,0,0,1,2.61.61c1,.33,2,.89,3.1,1.16a.84.84,0,0,1,.41,1.37,3.7,3.7,0,0,0-.46.79c-.32.69-.65,1.37-1,2a32.87,32.87,0,0,1-1.84,3.21A4.18,4.18,0,0,0,85,52.29a2.33,2.33,0,0,0,.4-.27l1.34-1.15c.56-.46,1.16-.88,1.76-1.29a16.74,16.74,0,0,1,1.85-1.26c1-.5,2-.87,3-1.45.62-.38,1.29-.69,1.89-1.1A27.47,27.47,0,0,1,98.07,44a24.15,24.15,0,0,1,3.14-1.25,16.46,16.46,0,0,0,3.09-1.38c.79-.47,1.54-1,2.35-1.44a17.13,17.13,0,0,0,3-1.87,15.92,15.92,0,0,1,3.18-1.94c1.35-.68,2.71-1.32,4.07-2,.14-.06.36-.09.4-.23s-.2-.21-.31-.29a6.69,6.69,0,0,0-1.61-1,6.5,6.5,0,0,1-1.18-.59c-.31-.22-.62-.43-.94-.63-1-.61-1.87-1.33-2.81-2s-1.45-1.32-2.21-1.94a15.5,15.5,0,0,0-1.81-1.32,11,11,0,0,1-1.63-1.09,17.77,17.77,0,0,0-1.73-1.26,13.2,13.2,0,0,1-2.4-1.8,10.17,10.17,0,0,0-.92-.82,15.74,15.74,0,0,1-2.35-1.8,6.73,6.73,0,0,0-2.08-1.51c-.9-.48-1.64-1.18-2.51-1.7a11.77,11.77,0,0,1-1.29-.83c.19.58.43,1.12.6,1.68.53,1.81,1.12,3.6,1.73,5.38.23.68,0,1-.68,1.19a3.9,3.9,0,0,1-1.7,0c-1.16-.25-2.28-.66-3.46-.84-.77-.12-1.53-.37-2.3-.53s-1.72-.43-2.57-.66-1.8-.44-2.71-.6-2-.38-3-.49-1.91-.26-2.88-.35a21.73,21.73,0,0,1-2.42-.37c-.85-.17-1.71-.27-2.56-.4l-3-.47c-.69-.11-1.38-.26-2.08-.34a27.66,27.66,0,0,1-2.89-.49c-1.17-.26-2.37-.37-3.55-.54-.86-.12-1.71-.23-2.56-.36-.69-.1-1.37-.27-2.06-.32a27.78,27.78,0,0,1-3-.5A13.51,13.51,0,0,0,48,16.1,29.35,29.35,0,0,1,44.48,16c-1-.13-2-.28-3.07-.36-1.33-.1-2.66-.14-4-.2A19.57,19.57,0,0,1,35,15.1c-.8-.13-1.6-.21-2.41-.28-.53,0-1.07,0-1.6-.07-1.29-.08-2.57-.2-3.85-.24s-2.8,0-4.19,0c-.2,0-.4-.05-.6-.05A10,10,0,0,1,21.12,14.48Z" transform="translate(0 0)" style="fill:#fe9c01"/><path d="M21.12,14.48a10,10,0,0,0,1.23,0c.2,0,.4.05.6.05,1.39,0,2.79,0,4.19,0s2.56.16,3.85.24c.53,0,1.07,0,1.6.07.81.07,1.61.15,2.41.28a19.57,19.57,0,0,0,2.41.29c1.34.06,2.67.1,4,.2,1,.08,2.05.23,3.07.36A29.35,29.35,0,0,0,48,16.1a13.51,13.51,0,0,1,2.45.27,27.78,27.78,0,0,0,3,.5c.69.05,1.37.22,2.06.32.85.13,1.7.24,2.56.36,1.18.17,2.38.28,3.55.54a27.66,27.66,0,0,0,2.89.49c.7.08,1.39.23,2.08.34l3,.47c.85.13,1.71.23,2.56.4a21.73,21.73,0,0,0,2.42.37c1,.09,1.92.24,2.88.35s2,.31,3,.49,1.82.35,2.71.6,1.7.47,2.57.66,1.53.41,2.3.53c1.18.18,2.3.59,3.46.84a3.9,3.9,0,0,0,1.7,0c.71-.15.91-.51.68-1.19-.61-1.78-1.2-3.57-1.73-5.38-.17-.56-.41-1.1-.6-1.68a11.77,11.77,0,0,0,1.29.83c.87.52,1.61,1.22,2.51,1.7a6.73,6.73,0,0,1,2.08,1.51,15.74,15.74,0,0,0,2.35,1.8,10.17,10.17,0,0,1,.92.82,13.2,13.2,0,0,0,2.4,1.8,17.77,17.77,0,0,1,1.73,1.26,11,11,0,0,0,1.63,1.09,15.5,15.5,0,0,1,1.81,1.32c.76.62,1.39,1.38,2.21,1.94s1.83,1.38,2.81,2c.32.2.63.41.94.63a6.5,6.5,0,0,0,1.18.59,6.69,6.69,0,0,1,1.61,1c.11.08.36.1.31.29s-.26.17-.4.23c-1.36.67-2.72,1.31-4.07,2a15.92,15.92,0,0,0-3.18,1.94,17.13,17.13,0,0,1-3,1.87c-.81.44-1.56,1-2.35,1.44a16.46,16.46,0,0,1-3.09,1.38A24.15,24.15,0,0,0,98.07,44a27.47,27.47,0,0,0-2.9,1.74c-.6.41-1.27.72-1.89,1.1-.94.58-2,1-3,1.45a16.74,16.74,0,0,0-1.85,1.26c-.6.41-1.2.83-1.76,1.29L85.38,52a2.33,2.33,0,0,1-.4.27,4.18,4.18,0,0,1,.59-1.48,32.87,32.87,0,0,0,1.84-3.21c.35-.67.68-1.35,1-2a3.7,3.7,0,0,1,.46-.79.84.84,0,0,0-.41-1.37c-1.08-.27-2-.83-3.1-1.16a10.55,10.55,0,0,0-2.61-.61c-1.28-.07-2.56-.16-3.85-.21a19.68,19.68,0,0,1-2.29-.21A21.57,21.57,0,0,0,74.35,41c-1.14-.06-2.28-.06-3.42-.15-.65-.05-1.29-.05-1.93,0-1,0-1.94-.07-2.92-.07a8,8,0,0,1-1-.11,5.68,5.68,0,0,0-.72,0c-1.31-.06-2.62-.15-3.93-.11-.81,0-1.63.14-2.45.22l-1.57.14-2.86.25-2.26.2-2.92.3c-.54.06-1.07.1-1.61.14-1.09.08-2.18.13-3.27.25s-2.24.36-3.37.55c-.7.11-1.41.21-2.11.36s-1.38.29-2.06.47a17.65,17.65,0,0,1-3.16.61,10.91,10.91,0,0,0-2,.41c-1.06.28-2.14.46-3.22.65-.58.1-.57.08-.4-.46.63-2,1.29-4,1.86-6a15.3,15.3,0,0,1,.68-1.74,22.1,22.1,0,0,0,.87-2.3c.28-.85.58-1.68.85-2.52a13.29,13.29,0,0,1,1.5-3,3.88,3.88,0,0,0,.6-2.13.78.78,0,0,0-.47-.76.63.63,0,0,1-.4-.41.63.63,0,0,0-.17-.23c-.66-.65-1.27-1.36-1.91-2-.87-.88-1.73-1.77-2.64-2.6s-1.52-1.59-2.31-2.35c-1.23-1.18-2.48-2.33-3.73-3.48A6.92,6.92,0,0,0,21.12,14.48Z" transform="translate(0 0)" style="fill:#feda01"/><path d="M90.78,20.92h0Z" transform="translate(0 0)" style="fill:#feda01"/></svg>